Interstate-Condensed_Extra_Light.ufo
<glyph name="exclam" format="1">
  <advance width="191"/>
  <unicode hex="0021"/>
  <outline>
    <contour>
      <point x="83" y="150" type="line"/>
      <point x="75" y="359" type="line"/>
      <point x="75" y="700" type="line"/>
      <point x="116" y="700" type="line"/>
      <point x="116" y="359" type="line"/>
      <point x="108" y="150" type="line"/>
    </contour>
    <contour>
      <point x="95" y="73" type="curve" smooth="yes"/>
      <point x="115" y="73"/>
      <point x="132" y="55"/>
      <point x="132" y="34" type="curve" smooth="yes"/>
      <point x="132" y="13"/>
      <point x="115" y="-4"/>
      <point x="95" y="-4" type="curve" smooth="yes"/>
      <point x="75" y="-4"/>
      <point x="58" y="13"/>
      <point x="58" y="34" type="curve" smooth="yes"/>
      <point x="58" y="55"/>
      <point x="75" y="73"/>
    </contour>
  </outline>
</glyph>
<glyph name="quotedbl" format="1">
  <advance width="334"/>
  <unicode hex="0022"/>
  <outline>
    <contour>
      <point x="227" y="428" type="line"/>
      <point x="217" y="700" type="line"/>
      <point x="266" y="700" type="line"/>
      <point x="256" y="428" type="line"/>
    </contour>
    <contour>
      <point x="78" y="428" type="line"/>
      <point x="68" y="700" type="line"/>
      <point x="116" y="700" type="line"/>
      <point x="107" y="428" type="line"/>
    </contour>
  </outline>
</glyph>
<glyph name="numbersign" format="1">
  <advance width="487"/>
  <unicode hex="0023"/>
  <outline>
    <contour>
      <point x="124" y="0" type="line"/>
      <point x="124" y="190" type="line"/>
      <point x="35" y="190" type="line"/>
      <point x="35" y="227" type="line"/>
      <point x="124" y="227" type="line"/>
      <point x="124" y="473" type="line"/>
      <point x="35" y="473" type="line"/>
      <point x="35" y="510" type="line"/>
      <point x="124" y="510" type="line"/>
      <point x="124" y="700" type="line"/>
      <point x="164" y="700" type="line"/>
      <point x="164" y="510" type="line"/>
      <point x="324" y="510" type="line"/>
      <point x="324" y="700" type="line"/>
      <point x="363" y="700" type="line"/>
      <point x="363" y="510" type="line"/>
      <point x="452" y="510" type="line"/>
      <point x="452" y="473" type="line"/>
      <point x="363" y="473" type="line"/>
      <point x="363" y="227" type="line"/>
      <point x="452" y="227" type="line"/>
      <point x="452" y="190" type="line"/>
      <point x="363" y="190" type="line"/>
      <point x="363" y="0" type="line"/>
      <point x="324" y="0" type="line"/>
      <point x="324" y="190" type="line"/>
      <point x="164" y="190" type="line"/>
      <point x="164" y="0" type="line"/>
    </contour>
    <contour>
      <point x="164" y="227" type="line"/>
      <point x="324" y="227" type="line"/>
      <point x="324" y="473" type="line"/>
      <point x="164" y="473" type="line"/>
    </contour>
  </outline>
</glyph>
<glyph name="dollar" format="1">
  <advance width="401"/>
  <unicode hex="0024"/>
  <outline>
    <contour>
      <point x="175" y="-6" type="line"/>
      <point x="78" y="5"/>
      <point x="50" y="85"/>
      <point x="38" y="124" type="curve"/>
      <point x="74" y="139" type="line"/>
      <point x="88" y="96"/>
      <point x="117" y="31"/>
      <point x="197" y="31" type="curve" smooth="yes"/>
      <point x="265" y="31"/>
      <point x="311" y="74"/>
      <point x="311" y="152" type="curve" smooth="yes"/>
      <point x="311" y="228"/>
      <point x="286" y="280"/>
      <point x="183" y="353" type="curve" smooth="yes"/>
      <point x="82" y="424"/>
      <point x="50" y="474"/>
      <point x="50" y="557" type="curve" smooth="yes"/>
      <point x="50" y="639"/>
      <point x="98" y="698"/>
      <point x="175" y="706" type="curve"/>
      <point x="175" y="779" type="line"/>
      <point x="216" y="779" type="line"/>
      <point x="216" y="706" type="line"/>
      <point x="308" y="695"/>
      <point x="337" y="621"/>
      <point x="346" y="596" type="curve"/>
      <point x="311" y="577" type="line"/>
      <point x="298" y="607"/>
      <point x="271" y="669"/>
      <point x="193" y="669" type="curve" smooth="yes"/>
      <point x="125" y="669"/>
      <point x="91" y="620"/>
      <point x="91" y="560" type="curve" smooth="yes"/>
      <point x="91" y="497"/>
      <point x="112" y="454"/>
      <point x="209" y="385" type="curve" smooth="yes"/>
      <point x="317" y="308"/>
      <point x="352" y="250"/>
      <point x="352" y="156" type="curve" smooth="yes"/>
      <point x="352" y="62"/>
      <point x="301" y="2"/>
      <point x="216" y="-6" type="curve"/>
      <point x="216" y="-79" type="line"/>
      <point x="175" y="-79" type="line"/>
    </contour>
  </outline>
</glyph>
<glyph name="percent" format="1">
  <advance width="677"/>
  <unicode hex="0025"/>
  <outline>
    <contour>
      <point x="157" y="710" type="curve" smooth="yes"/>
      <point x="230" y="710"/>
      <point x="272" y="636"/>
      <point x="272" y="504" type="curve" smooth="yes"/>
      <point x="272" y="372"/>
      <point x="231" y="299"/>
      <point x="157" y="299" type="curve" smooth="yes"/>
      <point x="83" y="299"/>
      <point x="43" y="372"/>
      <point x="43" y="504" type="curve" smooth="yes"/>
      <point x="43" y="636"/>
      <point x="84" y="710"/>
    </contour>
    <contour>
      <point x="143" y="0" type="line"/>
      <point x="498" y="700" type="line"/>
      <point x="537" y="700" type="line"/>
      <point x="182" y="0" type="line"/>
    </contour>
    <contour>
      <point x="519" y="401" type="curve" smooth="yes"/>
      <point x="592" y="401"/>
      <point x="634" y="327"/>
      <point x="634" y="195" type="curve" smooth="yes"/>
      <point x="634" y="63"/>
      <point x="593" y="-10"/>
      <point x="519" y="-10" type="curve" smooth="yes"/>
      <point x="445" y="-10"/>
      <point x="405" y="63"/>
      <point x="405" y="195" type="curve" smooth="yes"/>
      <point x="405" y="327"/>
      <point x="446" y="401"/>
    </contour>
    <contour>
      <point x="157" y="334" type="curve" smooth="yes"/>
      <point x="213" y="334"/>
      <point x="235" y="400"/>
      <point x="235" y="504" type="curve" smooth="yes"/>
      <point x="235" y="608"/>
      <point x="213" y="675"/>
      <point x="157" y="675" type="curve" smooth="yes"/>
      <point x="101" y="675"/>
      <point x="80" y="608"/>
      <point x="80" y="504" type="curve" smooth="yes"/>
      <point x="80" y="400"/>
      <point x="101" y="334"/>
    </contour>
    <contour>
      <point x="519" y="25" type="curve" smooth="yes"/>
      <point x="575" y="25"/>
      <point x="597" y="91"/>
      <point x="597" y="195" type="curve" smooth="yes"/>
      <point x="597" y="299"/>
      <point x="575" y="366"/>
      <point x="519" y="366" type="curve" smooth="yes"/>
      <point x="463" y="366"/>
      <point x="442" y="299"/>
      <point x="442" y="195" type="curve" smooth="yes"/>
      <point x="442" y="91"/>
      <point x="463" y="25"/>
    </contour>
  </outline>
</glyph>
<glyph name="ampersand" format="1">
  <advance width="443"/>
  <unicode hex="0026"/>
  <outline>
    <contour>
      <point x="341" y="126" type="curve"/>
      <point x="407" y="0" type="line"/>
      <point x="363" y="0" type="line"/>
      <point x="319" y="84" type="line"/>
      <point x="284" y="26"/>
      <point x="238" y="-10"/>
      <point x="178" y="-10" type="curve" smooth="yes"/>
      <point x="131" y="-10"/>
      <point x="42" y="8"/>
      <point x="42" y="161" type="curve" smooth="yes"/>
      <point x="42" y="268"/>
      <point x="110" y="351"/>
      <point x="156" y="394" type="curve"/>
      <point x="136" y="433" type="line" smooth="yes"/>
      <point x="106" y="492"/>
      <point x="88" y="538"/>
      <point x="88" y="582" type="curve" smooth="yes"/>
      <point x="88" y="655"/>
      <point x="132" y="710"/>
      <point x="210" y="710" type="curve" smooth="yes"/>
      <point x="299" y="710"/>
      <point x="336" y="631"/>
      <point x="346" y="605" type="curve"/>
      <point x="311" y="585" type="line"/>
      <point x="297" y="616"/>
      <point x="268" y="672"/>
      <point x="208" y="672" type="curve" smooth="yes"/>
      <point x="158" y="672"/>
      <point x="129" y="635"/>
      <point x="129" y="585" type="curve" smooth="yes"/>
      <point x="129" y="549"/>
      <point x="140" y="512"/>
      <point x="168" y="458" type="curve" smooth="yes"/>
      <point x="319" y="169" type="line"/>
      <point x="340" y="226"/>
      <point x="352" y="285"/>
      <point x="363" y="350" type="curve"/>
      <point x="401" y="342" type="line"/>
      <point x="388" y="262"/>
      <point x="366" y="182"/>
    </contour>
    <contour>
      <point x="299" y="123" type="curve"/>
      <point x="175" y="360" type="line"/>
      <point x="140" y="326"/>
      <point x="83" y="258"/>
      <point x="83" y="161" type="curve" smooth="yes"/>
      <point x="83" y="48"/>
      <point x="143" y="28"/>
      <point x="178" y="28" type="curve" smooth="yes"/>
      <point x="230" y="28"/>
      <point x="269" y="65"/>
    </contour>
  </outline>
</glyph>
<glyph name="quotesingle" format="1">
  <advance width="184"/>
  <unicode hex="0027"/>
  <outline>
    <contour>
      <point x="78" y="428" type="line"/>
      <point x="68" y="700" type="line"/>
      <point x="116" y="700" type="line"/>
      <point x="107" y="428" type="line"/>
    </contour>
  </outline>
</glyph>
<glyph name="parenleft" format="1">
  <advance width="257"/>
  <unicode hex="0028"/>
  <outline>
    <contour>
      <point x="189" y="-110" type="line"/>
      <point x="108" y="0"/>
      <point x="52" y="134"/>
      <point x="52" y="301" type="curve" smooth="yes"/>
      <point x="52" y="474"/>
      <point x="106" y="604"/>
      <point x="189" y="715" type="curve"/>
      <point x="212" y="698" type="line"/>
      <point x="138" y="593"/>
      <point x="93" y="464"/>
      <point x="93" y="303" type="curve" smooth="yes"/>
      <point x="93" y="143"/>
      <point x="140" y="11"/>
      <point x="212" y="-93" type="curve"/>
    </contour>
  </outline>
</glyph>
<glyph name="parenright" format="1">
  <advance width="257"/>
  <unicode hex="0029"/>
  <outline>
    <contour>
      <point x="67" y="-110" type="curve"/>
      <point x="44" y="-93" type="line"/>
      <point x="119" y="12"/>
      <point x="164" y="142"/>
      <point x="164" y="302" type="curve" smooth="yes"/>
      <point x="164" y="463"/>
      <point x="117" y="594"/>
      <point x="44" y="698" type="curve"/>
      <point x="68" y="715" type="line"/>
      <point x="149" y="605"/>
      <point x="205" y="472"/>
      <point x="205" y="305" type="curve" smooth="yes"/>
      <point x="205" y="132"/>
      <point x="151" y="1"/>
    </contour>
  </outline>
</glyph>
<glyph name="asterisk" format="1">
  <advance width="368"/>
  <unicode hex="002A"/>
  <outline>
    <contour>
      <point x="166" y="398" type="line"/>
      <point x="175" y="534" type="line"/>
      <point x="63" y="458" type="line"/>
      <point x="44" y="490" type="line"/>
      <point x="163" y="549" type="line"/>
      <point x="44" y="609" type="line"/>
      <point x="63" y="640" type="line"/>
      <point x="175" y="565" type="line"/>
      <point x="166" y="699" type="line"/>
      <point x="203" y="699" type="line"/>
      <point x="194" y="565" type="line"/>
      <point x="305" y="640" type="line"/>
      <point x="324" y="609" type="line"/>
      <point x="205" y="549" type="line"/>
      <point x="324" y="490" type="line"/>
      <point x="305" y="458" type="line"/>
      <point x="194" y="534" type="line"/>
      <point x="203" y="398" type="line"/>
    </contour>
  </outline>
</glyph>
<glyph name="plus" format="1">
  <advance width="399"/>
  <unicode hex="002B"/>
  <outline>
    <contour>
      <point x="181" y="162" type="line"/>
      <point x="181" y="325" type="line"/>
      <point x="34" y="325" type="line"/>
      <point x="34" y="363" type="line"/>
      <point x="181" y="363" type="line"/>
      <point x="181" y="526" type="line"/>
      <point x="219" y="526" type="line"/>
      <point x="219" y="363" type="line"/>
      <point x="365" y="363" type="line"/>
      <point x="365" y="325" type="line"/>
      <point x="219" y="325" type="line"/>
      <point x="219" y="162" type="line"/>
    </contour>
  </outline>
</glyph>
<glyph name="comma" format="1">
  <advance width="149"/>
  <unicode hex="002C"/>
  <outline>
    <contour>
      <point x="41" y="-88" type="line"/>
      <point x="55" y="76" type="line"/>
      <point x="104" y="76" type="line"/>
      <point x="67" y="-88" type="line"/>
    </contour>
  </outline>
</glyph>
<glyph name="hyphen" format="1">
  <advance width="254"/>
  <unicode hex="002D"/>
  <unicode hex="2010"/>
  <unicode hex="2011"/>
  <outline>
    <contour>
      <point x="37" y="345" type="line"/>
      <point x="37" y="385" type="line"/>
      <point x="217" y="385" type="line"/>
      <point x="217" y="345" type="line"/>
    </contour>
  </outline>
</glyph>
<glyph name="period" format="1">
  <advance width="148"/>
  <unicode hex="002E"/>
  <outline>
    <contour>
      <point x="74" y="73" type="curve" smooth="yes"/>
      <point x="94" y="73"/>
      <point x="111" y="55"/>
      <point x="111" y="34" type="curve" smooth="yes"/>
      <point x="111" y="13"/>
      <point x="94" y="-4"/>
      <point x="74" y="-4" type="curve" smooth="yes"/>
      <point x="54" y="-4"/>
      <point x="37" y="13"/>
      <point x="37" y="34" type="curve" smooth="yes"/>
      <point x="37" y="55"/>
      <point x="54" y="73"/>
    </contour>
  </outline>
</glyph>
<glyph name="slash" format="1">
  <advance width="282"/>
  <unicode hex="002F"/>
  <outline>
    <contour>
      <point x="12" y="-90" type="line"/>
      <point x="232" y="790" type="line"/>
      <point x="270" y="790" type="line"/>
      <point x="50" y="-90" type="line"/>
    </contour>
  </outline>
</glyph>
<glyph name="zero" format="1">
  <advance width="455"/>
  <unicode hex="0030"/>
  <outline>
    <contour>
      <point x="227" y="710" type="curve" smooth="yes"/>
      <point x="345" y="710"/>
      <point x="405" y="592"/>
      <point x="405" y="350" type="curve" smooth="yes"/>
      <point x="405" y="107"/>
      <point x="345" y="-10"/>
      <point x="227" y="-10" type="curve" smooth="yes"/>
      <point x="109" y="-10"/>
      <point x="50" y="107"/>
      <point x="50" y="350" type="curve" smooth="yes"/>
      <point x="50" y="592"/>
      <point x="109" y="710"/>
    </contour>
    <contour>
      <point x="227" y="28" type="curve" smooth="yes"/>
      <point x="325" y="28"/>
      <point x="364" y="140"/>
      <point x="364" y="350" type="curve" smooth="yes"/>
      <point x="364" y="560"/>
      <point x="325" y="672"/>
      <point x="227" y="672" type="curve" smooth="yes"/>
      <point x="129" y="672"/>
      <point x="91" y="560"/>
      <point x="91" y="350" type="curve" smooth="yes"/>
      <point x="91" y="140"/>
      <point x="129" y="28"/>
    </contour>
  </outline>
</glyph>
<glyph name="one" format="1">
  <advance width="222"/>
  <unicode hex="0031"/>
  <outline>
    <contour>
      <point x="108" y="0" type="line"/>
      <point x="108" y="629" type="line"/>
      <point x="102" y="616"/>
      <point x="70" y="597"/>
      <point x="14" y="593" type="curve"/>
      <point x="14" y="630" type="line"/>
      <point x="67" y="634"/>
      <point x="104" y="655"/>
      <point x="117" y="702" type="curve"/>
      <point x="149" y="702" type="line"/>
      <point x="149" y="0" type="line"/>
    </contour>
  </outline>
</glyph>
<glyph name="two" format="1">
  <advance width="397"/>
  <unicode hex="0032"/>
  <outline>
    <contour>
      <point x="44" y="586" type="line"/>
      <point x="58" y="625"/>
      <point x="98" y="710"/>
      <point x="200" y="710" type="curve" smooth="yes"/>
      <point x="292" y="710"/>
      <point x="344" y="647"/>
      <point x="344" y="543" type="curve" smooth="yes"/>
      <point x="344" y="451"/>
      <point x="305" y="402"/>
      <point x="218" y="317" type="curve" smooth="yes"/>
      <point x="117" y="219"/>
      <point x="86" y="148"/>
      <point x="79" y="39" type="curve"/>
      <point x="347" y="39" type="line"/>
      <point x="347" y="0" type="line"/>
      <point x="35" y="0" type="line"/>
      <point x="40" y="155"/>
      <point x="76" y="232"/>
      <point x="191" y="345" type="curve" smooth="yes"/>
      <point x="267" y="420"/>
      <point x="303" y="465"/>
      <point x="303" y="543" type="curve" smooth="yes"/>
      <point x="303" y="619"/>
      <point x="267" y="672"/>
      <point x="200" y="672" type="curve" smooth="yes"/>
      <point x="121" y="672"/>
      <point x="92" y="598"/>
      <point x="82" y="572" type="curve"/>
    </contour>
  </outline>
</glyph>
<glyph name="three" format="1">
  <advance width="393"/>
  <unicode hex="0033"/>
  <outline>
    <contour>
      <point x="180" y="-10" type="curve" smooth="yes"/>
      <point x="69" y="-10"/>
      <point x="39" y="81"/>
      <point x="29" y="114" type="curve"/>
      <point x="65" y="131" type="line"/>
      <point x="75" y="100"/>
      <point x="103" y="28"/>
      <point x="180" y="28" type="curve" smooth="yes"/>
      <point x="260" y="28"/>
      <point x="302" y="96"/>
      <point x="302" y="192" type="curve" smooth="yes"/>
      <point x="302" y="305"/>
      <point x="251" y="355"/>
      <point x="169" y="355" type="curve" smooth="yes"/>
      <point x="144" y="355" type="line"/>
      <point x="144" y="393" type="line"/>
      <point x="171" y="393" type="line" smooth="yes"/>
      <point x="252" y="393"/>
      <point x="288" y="450"/>
      <point x="288" y="540" type="curve" smooth="yes"/>
      <point x="288" y="620"/>
      <point x="248" y="672"/>
      <point x="181" y="672" type="curve" smooth="yes"/>
      <point x="113" y="672"/>
      <point x="87" y="613"/>
      <point x="73" y="577" type="curve"/>
      <point x="39" y="593" type="line"/>
      <point x="51" y="632"/>
      <point x="90" y="710"/>
      <point x="181" y="710" type="curve" smooth="yes"/>
      <point x="271" y="710"/>
      <point x="329" y="648"/>
      <point x="329" y="540" type="curve" smooth="yes"/>
      <point x="329" y="441"/>
      <point x="281" y="387"/>
      <point x="230" y="376" type="curve"/>
      <point x="275" y="367"/>
      <point x="344" y="333"/>
      <point x="344" y="192" type="curve" smooth="yes"/>
      <point x="344" y="68"/>
      <point x="282" y="-10"/>
    </contour>
  </outline>
</glyph>
<glyph name="four" format="1">
  <advance width="415"/>
  <unicode hex="0034"/>
  <outline>
    <contour>
      <point x="281" y="0" type="line"/>
      <point x="281" y="192" type="line"/>
      <point x="22" y="192" type="line"/>
      <point x="22" y="223" type="line"/>
      <point x="282" y="702" type="line"/>
      <point x="319" y="702" type="line"/>
      <point x="319" y="228" type="line"/>
      <point x="389" y="228" type="line"/>
      <point x="389" y="192" type="line"/>
      <point x="319" y="192" type="line"/>
      <point x="319" y="0" type="line"/>
    </contour>
    <contour>
      <point x="64" y="228" type="line"/>
      <point x="281" y="228" type="line"/>
      <point x="281" y="631" type="line"/>
    </contour>
  </outline>
</glyph>
<glyph name="five" format="1">
  <advance width="409"/>
  <unicode hex="0035"/>
  <outline>
    <contour>
      <point x="195" y="-10" type="curve" smooth="yes"/>
      <point x="93" y="-10"/>
      <point x="55" y="74"/>
      <point x="43" y="109" type="curve"/>
      <point x="77" y="127" type="line"/>
      <point x="92" y="90"/>
      <point x="123" y="28"/>
      <point x="195" y="28" type="curve" smooth="yes"/>
      <point x="277" y="28"/>
      <point x="324" y="103"/>
      <point x="324" y="223" type="curve" smooth="yes"/>
      <point x="324" y="327"/>
      <point x="284" y="399"/>
      <point x="203" y="399" type="curve" smooth="yes"/>
      <point x="140" y="399"/>
      <point x="109" y="356"/>
      <point x="94" y="333" type="curve"/>
      <point x="57" y="343" type="line"/>
      <point x="75" y="700" type="line"/>
      <point x="344" y="700" type="line"/>
      <point x="344" y="660" type="line"/>
      <point x="110" y="660" type="line"/>
      <point x="96" y="382" type="line"/>
      <point x="111" y="405"/>
      <point x="149" y="438"/>
      <point x="208" y="438" type="curve" smooth="yes"/>
      <point x="311" y="438"/>
      <point x="366" y="358"/>
      <point x="366" y="223" type="curve" smooth="yes"/>
      <point x="366" y="75"/>
      <point x="298" y="-10"/>
    </contour>
  </outline>
</glyph>
<glyph name="six" format="1">
  <advance width="425"/>
  <unicode hex="0036"/>
  <outline>
    <contour>
      <point x="91" y="332" type="curve"/>
      <point x="109" y="371"/>
      <point x="155" y="424"/>
      <point x="227" y="424" type="curve" smooth="yes"/>
      <point x="326" y="424"/>
      <point x="389" y="344"/>
      <point x="389" y="210" type="curve" smooth="yes"/>
      <point x="389" y="82"/>
      <point x="322" y="-10"/>
      <point x="218" y="-10" type="curve" smooth="yes"/>
      <point x="110" y="-10"/>
      <point x="48" y="74"/>
      <point x="48" y="241" type="curve" smooth="yes"/>
      <point x="48" y="369"/>
      <point x="66" y="456"/>
      <point x="97" y="523" type="curve" smooth="yes"/>
      <point x="147" y="630"/>
      <point x="229" y="685"/>
      <point x="297" y="709" type="curve"/>
      <point x="314" y="673" type="line"/>
      <point x="186" y="622"/>
      <point x="109" y="525"/>
    </contour>
    <contour>
      <point x="89" y="263" type="curve"/>
      <point x="89" y="256"/>
      <point x="89" y="248"/>
      <point x="89" y="241" type="curve" smooth="yes"/>
      <point x="89" y="106"/>
      <point x="134" y="28"/>
      <point x="218" y="28" type="curve" smooth="yes"/>
      <point x="300" y="28"/>
      <point x="348" y="108"/>
      <point x="348" y="210" type="curve" smooth="yes"/>
      <point x="348" y="316"/>
      <point x="305" y="385"/>
      <point x="227" y="385" type="curve" smooth="yes"/>
      <point x="155" y="385"/>
      <point x="109" y="327"/>
    </contour>
  </outline>
</glyph>
<glyph name="seven" format="1">
  <advance width="379"/>
  <unicode hex="0037"/>
  <outline>
    <contour>
      <point x="123" y="0" type="line"/>
      <point x="127" y="281"/>
      <point x="181" y="493"/>
      <point x="292" y="661" type="curve"/>
      <point x="18" y="661" type="line"/>
      <point x="18" y="700" type="line"/>
      <point x="337" y="700" type="line"/>
      <point x="337" y="663" type="line"/>
      <point x="222" y="491"/>
      <point x="168" y="293"/>
      <point x="165" y="0" type="curve"/>
    </contour>
  </outline>
</glyph>
<glyph name="eight" format="1">
  <advance width="428"/>
  <unicode hex="0038"/>
  <outline>
    <contour>
      <point x="146" y="381" type="curve"/>
      <point x="94" y="407"/>
      <point x="60" y="459"/>
      <point x="60" y="534" type="curve" smooth="yes"/>
      <point x="60" y="633"/>
      <point x="119" y="710"/>
      <point x="213" y="710" type="curve" smooth="yes"/>
      <point x="307" y="710"/>
      <point x="368" y="635"/>
      <point x="368" y="536" type="curve" smooth="yes"/>
      <point x="368" y="461"/>
      <point x="334" y="408"/>
      <point x="280" y="382" type="curve"/>
      <point x="344" y="353"/>
      <point x="383" y="289"/>
      <point x="383" y="198" type="curve" smooth="yes"/>
      <point x="383" y="75"/>
      <point x="317" y="-10"/>
      <point x="213" y="-10" type="curve" smooth="yes"/>
      <point x="109" y="-10"/>
      <point x="45" y="73"/>
      <point x="45" y="196" type="curve" smooth="yes"/>
      <point x="45" y="287"/>
      <point x="84" y="352"/>
    </contour>
    <contour>
      <point x="213" y="672" type="curve" smooth="yes"/>
      <point x="143" y="672"/>
      <point x="101" y="611"/>
      <point x="101" y="536" type="curve" smooth="yes"/>
      <point x="101" y="459"/>
      <point x="145" y="399"/>
      <point x="213" y="399" type="curve" smooth="yes"/>
      <point x="281" y="399"/>
      <point x="327" y="457"/>
      <point x="327" y="534" type="curve" smooth="yes"/>
      <point x="327" y="609"/>
      <point x="283" y="672"/>
    </contour>
    <contour>
      <point x="213" y="362" type="curve" smooth="yes"/>
      <point x="134" y="362"/>
      <point x="86" y="292"/>
      <point x="86" y="198" type="curve" smooth="yes"/>
      <point x="86" y="101"/>
      <point x="133" y="28"/>
      <point x="213" y="28" type="curve" smooth="yes"/>
      <point x="293" y="28"/>
      <point x="342" y="99"/>
      <point x="342" y="196" type="curve" smooth="yes"/>
      <point x="342" y="290"/>
      <point x="292" y="362"/>
    </contour>
  </outline>
</glyph>
<glyph name="nine" format="1">
  <advance width="425"/>
  <unicode hex="0039"/>
  <outline>
    <contour>
      <point x="334" y="368" type="curve"/>
      <point x="316" y="329"/>
      <point x="270" y="276"/>
      <point x="198" y="276" type="curve" smooth="yes"/>
      <point x="99" y="276"/>
      <point x="36" y="356"/>
      <point x="36" y="490" type="curve" smooth="yes"/>
      <point x="36" y="618"/>
      <point x="103" y="710"/>
      <point x="207" y="710" type="curve" smooth="yes"/>
      <point x="315" y="710"/>
      <point x="377" y="626"/>
      <point x="377" y="459" type="curve" smooth="yes"/>
      <point x="377" y="331"/>
      <point x="359" y="244"/>
      <point x="328" y="177" type="curve" smooth="yes"/>
      <point x="278" y="70"/>
      <point x="196" y="15"/>
      <point x="128" y="-9" type="curve"/>
      <point x="111" y="27" type="line"/>
      <point x="239" y="78"/>
      <point x="316" y="175"/>
    </contour>
    <contour>
      <point x="336" y="437" type="curve"/>
      <point x="336" y="444"/>
      <point x="336" y="452"/>
      <point x="336" y="459" type="curve" smooth="yes"/>
      <point x="336" y="594"/>
      <point x="291" y="672"/>
      <point x="207" y="672" type="curve" smooth="yes"/>
      <point x="125" y="672"/>
      <point x="77" y="592"/>
      <point x="77" y="490" type="curve" smooth="yes"/>
      <point x="77" y="384"/>
      <point x="120" y="315"/>
      <point x="198" y="315" type="curve" smooth="yes"/>
      <point x="270" y="315"/>
      <point x="316" y="373"/>
    </contour>
  </outline>
</glyph>
<glyph name="colon" format="1">
  <advance width="148"/>
  <unicode hex="003A"/>
  <outline>
    <contour>
      <point x="74" y="531" type="curve" smooth="yes"/>
      <point x="94" y="531"/>
      <point x="111" y="513"/>
      <point x="111" y="492" type="curve" smooth="yes"/>
      <point x="111" y="471"/>
      <point x="94" y="454"/>
      <point x="74" y="454" type="curve" smooth="yes"/>
      <point x="54" y="454"/>
      <point x="37" y="471"/>
      <point x="37" y="492" type="curve" smooth="yes"/>
      <point x="37" y="513"/>
      <point x="54" y="531"/>
    </contour>
    <contour>
      <point x="74" y="73" type="curve" smooth="yes"/>
      <point x="94" y="73"/>
      <point x="111" y="55"/>
      <point x="111" y="34" type="curve" smooth="yes"/>
      <point x="111" y="13"/>
      <point x="94" y="-4"/>
      <point x="74" y="-4" type="curve" smooth="yes"/>
      <point x="54" y="-4"/>
      <point x="37" y="13"/>
      <point x="37" y="34" type="curve" smooth="yes"/>
      <point x="37" y="55"/>
      <point x="54" y="73"/>
    </contour>
  </outline>
</glyph>
<glyph name="semicolon" format="1">
  <advance width="149"/>
  <unicode hex="003B"/>
  <outline>
    <contour>
      <point x="74" y="531" type="curve" smooth="yes"/>
      <point x="94" y="531"/>
      <point x="111" y="513"/>
      <point x="111" y="492" type="curve" smooth="yes"/>
      <point x="111" y="471"/>
      <point x="94" y="454"/>
      <point x="74" y="454" type="curve" smooth="yes"/>
      <point x="54" y="454"/>
      <point x="37" y="471"/>
      <point x="37" y="492" type="curve" smooth="yes"/>
      <point x="37" y="513"/>
      <point x="54" y="531"/>
    </contour>
    <contour>
      <point x="34" y="-88" type="line"/>
      <point x="48" y="76" type="line"/>
      <point x="97" y="76" type="line"/>
      <point x="60" y="-88" type="line"/>
    </contour>
  </outline>
</glyph>
<glyph name="less" format="1">
  <advance width="290"/>
  <unicode hex="003C"/>
  <outline>
    <contour>
      <point x="241" y="118" type="line"/>
      <point x="34" y="328" type="line"/>
      <point x="34" y="360" type="line"/>
      <point x="241" y="570" type="line"/>
      <point x="242" y="518" type="line"/>
      <point x="67" y="345" type="line"/>
      <point x="242" y="170" type="line"/>
    </contour>
  </outline>
</glyph>
<glyph name="equal" format="1">
  <advance width="429"/>
  <unicode hex="003D"/>
  <outline>
    <contour>
      <point x="57" y="412" type="line"/>
      <point x="57" y="451" type="line"/>
      <point x="372" y="451" type="line"/>
      <point x="372" y="412" type="line"/>
    </contour>
    <contour>
      <point x="57" y="237" type="line"/>
      <point x="57" y="276" type="line"/>
      <point x="372" y="276" type="line"/>
      <point x="372" y="237" type="line"/>
    </contour>
  </outline>
</glyph>
<glyph name="greater" format="1">
  <advance width="290"/>
  <unicode hex="003E"/>
  <outline>
    <contour>
      <point x="49" y="118" type="line"/>
      <point x="48" y="170" type="line"/>
      <point x="223" y="343" type="line"/>
      <point x="48" y="518" type="line"/>
      <point x="49" y="570" type="line"/>
      <point x="255" y="360" type="line"/>
      <point x="255" y="328" type="line"/>
    </contour>
  </outline>
</glyph>
<glyph name="question" format="1">
  <advance width="383"/>
  <unicode hex="003F"/>
  <outline>
    <contour>
      <point x="35" y="584" type="line"/>
      <point x="51" y="629"/>
      <point x="95" y="710"/>
      <point x="193" y="710" type="curve" smooth="yes"/>
      <point x="284" y="710"/>
      <point x="335" y="649"/>
      <point x="335" y="555" type="curve" smooth="yes"/>
      <point x="335" y="475"/>
      <point x="299" y="426"/>
      <point x="247" y="369" type="curve" smooth="yes"/>
      <point x="200" y="318"/>
      <point x="194" y="287"/>
      <point x="194" y="156" type="curve"/>
      <point x="153" y="156" type="line"/>
      <point x="153" y="300"/>
      <point x="160" y="329"/>
      <point x="219" y="395" type="curve" smooth="yes"/>
      <point x="263" y="444"/>
      <point x="294" y="486"/>
      <point x="294" y="554" type="curve" smooth="yes"/>
      <point x="294" y="622"/>
      <point x="258" y="672"/>
      <point x="193" y="672" type="curve" smooth="yes"/>
      <point x="116" y="672"/>
      <point x="83" y="597"/>
      <point x="70" y="565" type="curve"/>
    </contour>
    <contour>
      <point x="173" y="73" type="curve" smooth="yes"/>
      <point x="193" y="73"/>
      <point x="210" y="55"/>
      <point x="210" y="34" type="curve" smooth="yes"/>
      <point x="210" y="13"/>
      <point x="193" y="-4"/>
      <point x="173" y="-4" type="curve" smooth="yes"/>
      <point x="153" y="-4"/>
      <point x="136" y="13"/>
      <point x="136" y="34" type="curve" smooth="yes"/>
      <point x="136" y="55"/>
      <point x="153" y="73"/>
    </contour>
  </outline>
</glyph>
<glyph name="at" format="1">
  <advance width="607"/>
  <unicode hex="0040"/>
  <outline>
    <contour>
      <point x="304" y="-10" type="curve" smooth="yes"/>
      <point x="144" y="-10"/>
      <point x="46" y="131"/>
      <point x="46" y="350" type="curve" smooth="yes"/>
      <point x="46" y="569"/>
      <point x="146" y="710"/>
      <point x="304" y="710" type="curve" smooth="yes"/>
      <point x="467" y="710"/>
      <point x="563" y="561"/>
      <point x="563" y="360" type="curve" smooth="yes"/>
      <point x="563" y="203"/>
      <point x="519" y="157"/>
      <point x="457" y="157" type="curve" smooth="yes"/>
      <point x="422" y="157"/>
      <point x="397" y="175"/>
      <point x="385" y="207" type="curve"/>
      <point x="359" y="178"/>
      <point x="328" y="156"/>
      <point x="288" y="156" type="curve" smooth="yes"/>
      <point x="229" y="156"/>
      <point x="187" y="195"/>
      <point x="187" y="282" type="curve" smooth="yes"/>
      <point x="187" y="369"/>
      <point x="233" y="409"/>
      <point x="295" y="409" type="curve" smooth="yes"/>
      <point x="329" y="409"/>
      <point x="353" y="398"/>
      <point x="373" y="384" type="curve"/>
      <point x="373" y="459" type="line" smooth="yes"/>
      <point x="373" y="508"/>
      <point x="353" y="530"/>
      <point x="303" y="530" type="curve" smooth="yes"/>
      <point x="275" y="530"/>
      <point x="250" y="519"/>
      <point x="225" y="500" type="curve"/>
      <point x="211" y="523" type="line"/>
      <point x="238" y="544"/>
      <point x="270" y="559"/>
      <point x="307" y="559" type="curve" smooth="yes"/>
      <point x="369" y="559"/>
      <point x="401" y="534"/>
      <point x="401" y="460" type="curve" smooth="yes"/>
      <point x="401" y="256" type="line" smooth="yes"/>
      <point x="401" y="210"/>
      <point x="422" y="184"/>
      <point x="458" y="184" type="curve" smooth="yes"/>
      <point x="503" y="184"/>
      <point x="535" y="225"/>
      <point x="535" y="359" type="curve" smooth="yes"/>
      <point x="535" y="554"/>
      <point x="446" y="683"/>
      <point x="304" y="683" type="curve" smooth="yes"/>
      <point x="160" y="683"/>
      <point x="74" y="555"/>
      <point x="74" y="351" type="curve" smooth="yes"/>
      <point x="74" y="146"/>
      <point x="160" y="17"/>
      <point x="305" y="17" type="curve" smooth="yes"/>
      <point x="346" y="17"/>
      <point x="385" y="31"/>
      <point x="413" y="49" type="curve"/>
      <point x="425" y="26" type="line"/>
      <point x="390" y="4"/>
      <point x="349" y="-10"/>
    </contour>
    <contour>
      <point x="292" y="184" type="curve" smooth="yes"/>
      <point x="324" y="184"/>
      <point x="354" y="204"/>
      <point x="374" y="230" type="curve"/>
      <point x="373" y="233"/>
      <point x="373" y="252"/>
      <point x="373" y="256" type="curve" smooth="yes"/>
      <point x="373" y="356" type="line"/>
      <point x="352" y="371"/>
      <point x="328" y="382"/>
      <point x="294" y="382" type="curve" smooth="yes"/>
      <point x="247" y="382"/>
      <point x="218" y="347"/>
      <point x="218" y="283" type="curve" smooth="yes"/>
      <point x="218" y="216"/>
      <point x="246" y="184"/>
    </contour>
  </outline>
</glyph>
<glyph name="A" format="1">
  <advance width="467"/>
  <unicode hex="0041"/>
  <outline>
    <contour>
      <point x="129" y="195" type="line"/>
      <point x="84" y="0" type="line"/>
      <point x="44" y="0" type="line"/>
      <point x="211" y="702" type="line"/>
      <point x="257" y="702" type="line"/>
      <point x="423" y="0" type="line"/>
      <point x="381" y="0" type="line"/>
      <point x="337" y="195" type="line"/>
    </contour>
    <contour>
      <point x="328" y="233" type="line"/>
      <point x="233" y="649" type="line"/>
      <point x="137" y="233" type="line"/>
    </contour>
  </outline>
</glyph>
<glyph name="B" format="1">
  <advance width="433"/>
  <unicode hex="0042"/>
  <outline>
    <contour>
      <point x="71" y="0" type="line"/>
      <point x="71" y="700" type="line"/>
      <point x="206" y="700" type="line" smooth="yes"/>
      <point x="304" y="700"/>
      <point x="365" y="644"/>
      <point x="365" y="532" type="curve" smooth="yes"/>
      <point x="365" y="441"/>
      <point x="317" y="390"/>
      <point x="262" y="377" type="curve"/>
      <point x="312" y="370"/>
      <point x="389" y="335"/>
      <point x="389" y="199" type="curve" smooth="yes"/>
      <point x="389" y="62"/>
      <point x="317" y="0"/>
      <point x="208" y="0" type="curve" smooth="yes"/>
    </contour>
    <contour>
      <point x="112" y="394" type="line"/>
      <point x="201" y="394" type="line" smooth="yes"/>
      <point x="282" y="394"/>
      <point x="324" y="450"/>
      <point x="324" y="531" type="curve" smooth="yes"/>
      <point x="324" y="620"/>
      <point x="278" y="661"/>
      <point x="204" y="661" type="curve" smooth="yes"/>
      <point x="112" y="661" type="line"/>
    </contour>
    <contour>
      <point x="112" y="39" type="line"/>
      <point x="210" y="39" type="line" smooth="yes"/>
      <point x="299" y="39"/>
      <point x="348" y="90"/>
      <point x="348" y="197" type="curve" smooth="yes"/>
      <point x="348" y="314"/>
      <point x="290" y="355"/>
      <point x="202" y="355" type="curve" smooth="yes"/>
      <point x="112" y="355" type="line"/>
    </contour>
  </outline>
</glyph>
<glyph name="C" format="1">
  <advance width="434"/>
  <unicode hex="0043"/>
  <outline>
    <contour>
      <point x="240" y="-10" type="curve" smooth="yes"/>
      <point x="122" y="-10"/>
      <point x="53" y="109"/>
      <point x="53" y="349" type="curve" smooth="yes"/>
      <point x="53" y="589"/>
      <point x="125" y="710"/>
      <point x="238" y="710" type="curve" smooth="yes"/>
      <point x="336" y="710"/>
      <point x="370" y="623"/>
      <point x="387" y="569" type="curve"/>
      <point x="350" y="553" type="line"/>
      <point x="332" y="607"/>
      <point x="304" y="672"/>
      <point x="238" y="672" type="curve" smooth="yes"/>
      <point x="149" y="672"/>
      <point x="94" y="559"/>
      <point x="94" y="351" type="curve" smooth="yes"/>
      <point x="94" y="143"/>
      <point x="148" y="28"/>
      <point x="240" y="28" type="curve" smooth="yes"/>
      <point x="308" y="28"/>
      <point x="336" y="96"/>
      <point x="354" y="147" type="curve"/>
      <point x="391" y="131" type="line"/>
      <point x="377" y="89"/>
      <point x="340" y="-10"/>
    </contour>
  </outline>
</glyph>
<glyph name="D" format="1">
  <advance width="462"/>
  <unicode hex="0044"/>
  <outline>
    <contour>
      <point x="71" y="0" type="line"/>
      <point x="71" y="700" type="line"/>
      <point x="193" y="700" type="line" smooth="yes"/>
      <point x="341" y="700"/>
      <point x="411" y="592"/>
      <point x="411" y="353" type="curve" smooth="yes"/>
      <point x="411" y="103"/>
      <point x="335" y="0"/>
      <point x="187" y="0" type="curve" smooth="yes"/>
    </contour>
    <contour>
      <point x="112" y="39" type="line"/>
      <point x="191" y="39" type="line" smooth="yes"/>
      <point x="307" y="39"/>
      <point x="370" y="124"/>
      <point x="370" y="351" type="curve" smooth="yes"/>
      <point x="370" y="569"/>
      <point x="311" y="661"/>
      <point x="191" y="661" type="curve" smooth="yes"/>
      <point x="112" y="661" type="line"/>
    </contour>
  </outline>
</glyph>
<glyph name="E" format="1">
  <advance width="389"/>
  <unicode hex="0045"/>
  <outline>
    <contour>
      <point x="71" y="0" type="line"/>
      <point x="71" y="700" type="line"/>
      <point x="343" y="700" type="line"/>
      <point x="343" y="661" type="line"/>
      <point x="112" y="661" type="line"/>
      <point x="112" y="394" type="line"/>
      <point x="261" y="394" type="line"/>
      <point x="261" y="354" type="line"/>
      <point x="112" y="354" type="line"/>
      <point x="112" y="39" type="line"/>
      <point x="355" y="39" type="line"/>
      <point x="355" y="0" type="line"/>
    </contour>
  </outline>
</glyph>
<glyph name="F" format="1">
  <advance width="373"/>
  <unicode hex="0046"/>
  <outline>
    <contour>
      <point x="71" y="0" type="line"/>
      <point x="71" y="700" type="line"/>
      <point x="342" y="700" type="line"/>
      <point x="342" y="661" type="line"/>
      <point x="112" y="661" type="line"/>
      <point x="112" y="385" type="line"/>
      <point x="263" y="385" type="line"/>
      <point x="263" y="346" type="line"/>
      <point x="112" y="346" type="line"/>
      <point x="112" y="0" type="line"/>
    </contour>
  </outline>
</glyph>
<glyph name="G" format="1">
  <advance width="459"/>
  <unicode hex="0047"/>
  <outline>
    <contour>
      <point x="238" y="-10" type="curve" smooth="yes"/>
      <point x="122" y="-10"/>
      <point x="53" y="109"/>
      <point x="53" y="349" type="curve" smooth="yes"/>
      <point x="53" y="589"/>
      <point x="125" y="710"/>
      <point x="238" y="710" type="curve" smooth="yes"/>
      <point x="336" y="710"/>
      <point x="372" y="621"/>
      <point x="389" y="567" type="curve"/>
      <point x="352" y="551" type="line"/>
      <point x="334" y="605"/>
      <point x="304" y="672"/>
      <point x="238" y="672" type="curve" smooth="yes"/>
      <point x="149" y="672"/>
      <point x="94" y="559"/>
      <point x="94" y="351" type="curve" smooth="yes"/>
      <point x="94" y="143"/>
      <point x="148" y="28"/>
      <point x="240" y="28" type="curve" smooth="yes"/>
      <point x="323" y="28"/>
      <point x="369" y="99"/>
      <point x="369" y="249" type="curve" smooth="yes"/>
      <point x="369" y="302" type="line"/>
      <point x="261" y="302" type="line"/>
      <point x="261" y="341" type="line"/>
      <point x="410" y="341" type="line"/>
      <point x="410" y="253" type="line" smooth="yes"/>
      <point x="410" y="89"/>
      <point x="354" y="-10"/>
    </contour>
  </outline>
</glyph>
<glyph name="H" format="1">
  <advance width="481"/>
  <unicode hex="0048"/>
  <outline>
    <contour>
      <point x="71" y="0" type="line"/>
      <point x="71" y="700" type="line"/>
      <point x="112" y="700" type="line"/>
      <point x="112" y="390" type="line"/>
      <point x="369" y="390" type="line"/>
      <point x="369" y="700" type="line"/>
      <point x="410" y="700" type="line"/>
      <point x="410" y="0" type="line"/>
      <point x="369" y="0" type="line"/>
      <point x="369" y="351" type="line"/>
      <point x="112" y="351" type="line"/>
      <point x="112" y="0" type="line"/>
    </contour>
  </outline>
</glyph>
<glyph name="J" format="1">
  <advance width="402"/>
  <unicode hex="004A"/>
  <outline>
    <contour>
      <point x="182" y="-10" type="curve" smooth="yes"/>
      <point x="58" y="-10"/>
      <point x="35" y="110"/>
      <point x="28" y="156" type="curve"/>
      <point x="68" y="165" type="line"/>
      <point x="75" y="122"/>
      <point x="93" y="28"/>
      <point x="182" y="28" type="curve" smooth="yes"/>
      <point x="260" y="28"/>
      <point x="292" y="82"/>
      <point x="292" y="202" type="curve" smooth="yes"/>
      <point x="292" y="700" type="line"/>
      <point x="334" y="700" type="line"/>
      <point x="334" y="200" type="line" smooth="yes"/>
      <point x="334" y="59"/>
      <point x="287" y="-10"/>
    </contour>
  </outline>
</glyph>
<glyph name="K" format="1">
  <advance width="430"/>
  <unicode hex="004B"/>
  <outline>
    <contour>
      <point x="220" y="432" type="line"/>
      <point x="399" y="0" type="line"/>
      <point x="356" y="0" type="line"/>
      <point x="194" y="389" type="line"/>
      <point x="112" y="253" type="line"/>
      <point x="112" y="0" type="line"/>
      <point x="71" y="0" type="line"/>
      <point x="71" y="700" type="line"/>
      <point x="112" y="700" type="line"/>
      <point x="112" y="321" type="line"/>
      <point x="338" y="700" type="line"/>
      <point x="382" y="700" type="line"/>
    </contour>
  </outline>
</glyph>
<glyph name="L" format="1">
  <advance width="365"/>
  <unicode hex="004C"/>
  <outline>
    <contour>
      <point x="71" y="0" type="line"/>
      <point x="71" y="700" type="line"/>
      <point x="112" y="700" type="line"/>
      <point x="112" y="39" type="line"/>
      <point x="335" y="39" type="line"/>
      <point x="335" y="0" type="line"/>
    </contour>
  </outline>
</glyph>
<glyph name="M" format="1">
  <advance width="565"/>
  <unicode hex="004D"/>
  <outline>
    <contour>
      <point x="71" y="0" type="line"/>
      <point x="71" y="700" type="line"/>
      <point x="118" y="700" type="line"/>
      <point x="282" y="108" type="line"/>
      <point x="447" y="700" type="line"/>
      <point x="494" y="700" type="line"/>
      <point x="494" y="0" type="line"/>
      <point x="456" y="0" type="line"/>
      <point x="456" y="604" type="line"/>
      <point x="284" y="-11" type="line"/>
      <point x="280" y="-11" type="line"/>
      <point x="109" y="604" type="line"/>
      <point x="109" y="0" type="line"/>
    </contour>
  </outline>
</glyph>
<glyph name="N" format="1">
  <advance width="479"/>
  <unicode hex="004E"/>
  <outline>
    <contour>
      <point x="71" y="0" type="line"/>
      <point x="71" y="700" type="line"/>
      <point x="112" y="700" type="line"/>
      <point x="369" y="100" type="line"/>
      <point x="369" y="700" type="line"/>
      <point x="408" y="700" type="line"/>
      <point x="408" y="0" type="line"/>
      <point x="373" y="0" type="line"/>
      <point x="110" y="610" type="line"/>
      <point x="110" y="0" type="line"/>
    </contour>
  </outline>
</glyph>
<glyph name="O" format="1">
  <advance width="487"/>
  <unicode hex="004F"/>
  <outline>
    <contour>
      <point x="243" y="710" type="curve" smooth="yes"/>
      <point x="363" y="710"/>
      <point x="434" y="591"/>
      <point x="434" y="351" type="curve" smooth="yes"/>
      <point x="434" y="111"/>
      <point x="363" y="-10"/>
      <point x="243" y="-10" type="curve" smooth="yes"/>
      <point x="123" y="-10"/>
      <point x="53" y="109"/>
      <point x="53" y="349" type="curve" smooth="yes"/>
      <point x="53" y="589"/>
      <point x="123" y="710"/>
    </contour>
    <contour>
      <point x="243" y="28" type="curve" smooth="yes"/>
      <point x="339" y="28"/>
      <point x="393" y="141"/>
      <point x="393" y="349" type="curve" smooth="yes"/>
      <point x="393" y="557"/>
      <point x="339" y="672"/>
      <point x="243" y="672" type="curve" smooth="yes"/>
      <point x="147" y="672"/>
      <point x="94" y="559"/>
      <point x="94" y="351" type="curve" smooth="yes"/>
      <point x="94" y="143"/>
      <point x="147" y="28"/>
    </contour>
  </outline>
</glyph>
<glyph name="P" format="1">
  <advance width="420"/>
  <unicode hex="0050"/>
  <outline>
    <contour>
      <point x="71" y="0" type="line"/>
      <point x="71" y="700" type="line"/>
      <point x="203" y="700" type="line" smooth="yes"/>
      <point x="311" y="700"/>
      <point x="385" y="648"/>
      <point x="385" y="512" type="curve" smooth="yes"/>
      <point x="385" y="374"/>
      <point x="307" y="316"/>
      <point x="196" y="316" type="curve" smooth="yes"/>
      <point x="112" y="316" type="line"/>
      <point x="112" y="0" type="line"/>
    </contour>
    <contour>
      <point x="112" y="355" type="line"/>
      <point x="198" y="355" type="line" smooth="yes"/>
      <point x="292" y="355"/>
      <point x="344" y="402"/>
      <point x="344" y="509" type="curve" smooth="yes"/>
      <point x="344" y="618"/>
      <point x="291" y="661"/>
      <point x="202" y="661" type="curve" smooth="yes"/>
      <point x="112" y="661" type="line"/>
    </contour>
  </outline>
</glyph>
<glyph name="Q" format="1">
  <advance width="487"/>
  <unicode hex="0051"/>
  <outline>
    <contour>
      <point x="364" y="51" type="curve"/>
      <point x="401" y="0" type="line"/>
      <point x="371" y="-23" type="line"/>
      <point x="337" y="23" type="line"/>
      <point x="311" y="2"/>
      <point x="279" y="-9"/>
      <point x="243" y="-9" type="curve" smooth="yes"/>
      <point x="123" y="-9"/>
      <point x="53" y="109"/>
      <point x="53" y="349" type="curve" smooth="yes"/>
      <point x="53" y="589"/>
      <point x="123" y="710"/>
      <point x="243" y="710" type="curve" smooth="yes"/>
      <point x="363" y="710"/>
      <point x="434" y="591"/>
      <point x="434" y="351" type="curve" smooth="yes"/>
      <point x="434" y="209"/>
      <point x="409" y="109"/>
    </contour>
    <contour>
      <point x="315" y="54" type="curve"/>
      <point x="257" y="133" type="line"/>
      <point x="287" y="156" type="line"/>
      <point x="340" y="83" type="line"/>
      <point x="374" y="135"/>
      <point x="393" y="227"/>
      <point x="393" y="349" type="curve" smooth="yes"/>
      <point x="393" y="557"/>
      <point x="339" y="672"/>
      <point x="243" y="672" type="curve" smooth="yes"/>
      <point x="147" y="672"/>
      <point x="94" y="559"/>
      <point x="94" y="351" type="curve" smooth="yes"/>
      <point x="94" y="143"/>
      <point x="147" y="27"/>
      <point x="243" y="27" type="curve" smooth="yes"/>
      <point x="270" y="27"/>
      <point x="295" y="37"/>
    </contour>
  </outline>
</glyph>
<glyph name="R" format="1">
  <advance width="437"/>
  <unicode hex="0052"/>
  <outline>
    <contour>
      <point x="270" y="339" type="curve"/>
      <point x="389" y="0" type="line"/>
      <point x="344" y="0" type="line"/>
      <point x="228" y="330" type="line"/>
      <point x="218" y="329"/>
      <point x="207" y="329"/>
      <point x="196" y="329" type="curve" smooth="yes"/>
      <point x="112" y="329" type="line"/>
      <point x="112" y="0" type="line"/>
      <point x="71" y="0" type="line"/>
      <point x="71" y="700" type="line"/>
      <point x="206" y="700" type="line" smooth="yes"/>
      <point x="312" y="700"/>
      <point x="385" y="654"/>
      <point x="385" y="518" type="curve" smooth="yes"/>
      <point x="385" y="414"/>
      <point x="340" y="359"/>
    </contour>
    <contour>
      <point x="112" y="367" type="line"/>
      <point x="198" y="367" type="line" smooth="yes"/>
      <point x="292" y="367"/>
      <point x="344" y="408"/>
      <point x="344" y="515" type="curve" smooth="yes"/>
      <point x="344" y="624"/>
      <point x="292" y="661"/>
      <point x="204" y="661" type="curve" smooth="yes"/>
      <point x="112" y="661" type="line"/>
    </contour>
  </outline>
</glyph>
<glyph name="S" format="1">
  <advance width="410"/>
  <unicode hex="0053"/>
  <outline>
    <contour>
      <point x="202" y="-10" type="curve" smooth="yes"/>
      <point x="87" y="-10"/>
      <point x="56" y="79"/>
      <point x="43" y="121" type="curve"/>
      <point x="79" y="136" type="line"/>
      <point x="94" y="93"/>
      <point x="122" y="28"/>
      <point x="202" y="28" type="curve" smooth="yes"/>
      <point x="270" y="28"/>
      <point x="316" y="74"/>
      <point x="316" y="152" type="curve" smooth="yes"/>
      <point x="316" y="228"/>
      <point x="291" y="280"/>
      <point x="188" y="353" type="curve" smooth="yes"/>
      <point x="87" y="424"/>
      <point x="55" y="474"/>
      <point x="55" y="557" type="curve" smooth="yes"/>
      <point x="55" y="645"/>
      <point x="110" y="710"/>
      <point x="198" y="710" type="curve" smooth="yes"/>
      <point x="308" y="710"/>
      <point x="341" y="626"/>
      <point x="351" y="599" type="curve"/>
      <point x="316" y="580" type="line"/>
      <point x="302" y="610"/>
      <point x="276" y="672"/>
      <point x="198" y="672" type="curve" smooth="yes"/>
      <point x="130" y="672"/>
      <point x="96" y="620"/>
      <point x="96" y="560" type="curve" smooth="yes"/>
      <point x="96" y="497"/>
      <point x="117" y="454"/>
      <point x="214" y="385" type="curve" smooth="yes"/>
      <point x="322" y="308"/>
      <point x="357" y="250"/>
      <point x="357" y="156" type="curve" smooth="yes"/>
      <point x="357" y="55"/>
      <point x="298" y="-10"/>
    </contour>
  </outline>
</glyph>
<glyph name="T" format="1">
  <advance width="396"/>
  <unicode hex="0054"/>
  <outline>
    <contour>
      <point x="177" y="0" type="line"/>
      <point x="177" y="662" type="line"/>
      <point x="31" y="662" type="line"/>
      <point x="31" y="700" type="line"/>
      <point x="365" y="700" type="line"/>
      <point x="365" y="662" type="line"/>
      <point x="218" y="662" type="line"/>
      <point x="218" y="0" type="line"/>
    </contour>
  </outline>
</glyph>
<glyph name="U" format="1">
  <advance width="476"/>
  <unicode hex="0055"/>
  <outline>
    <contour>
      <point x="238" y="-10" type="curve" smooth="yes"/>
      <point x="129" y="-10"/>
      <point x="68" y="62"/>
      <point x="68" y="196" type="curve" smooth="yes"/>
      <point x="68" y="700" type="line"/>
      <point x="109" y="700" type="line"/>
      <point x="109" y="197" type="line" smooth="yes"/>
      <point x="109" y="86"/>
      <point x="155" y="28"/>
      <point x="239" y="28" type="curve" smooth="yes"/>
      <point x="324" y="28"/>
      <point x="367" y="86"/>
      <point x="367" y="196" type="curve" smooth="yes"/>
      <point x="367" y="700" type="line"/>
      <point x="409" y="700" type="line"/>
      <point x="409" y="196" type="line" smooth="yes"/>
      <point x="409" y="63"/>
      <point x="347" y="-10"/>
    </contour>
  </outline>
</glyph>
<glyph name="V" format="1">
  <advance width="459"/>
  <unicode hex="0056"/>
  <outline>
    <contour>
      <point x="206" y="-2" type="line"/>
      <point x="44" y="700" type="line"/>
      <point x="86" y="700" type="line"/>
      <point x="230" y="53" type="line"/>
      <point x="374" y="700" type="line"/>
      <point x="415" y="700" type="line"/>
      <point x="253" y="-2" type="line"/>
    </contour>
  </outline>
</glyph>
<glyph name="W" format="1">
  <advance width="607"/>
  <unicode hex="0057"/>
  <outline>
    <contour>
      <point x="150" y="-2" type="line"/>
      <point x="44" y="700" type="line"/>
      <point x="84" y="700" type="line"/>
      <point x="174" y="77" type="line"/>
      <point x="284" y="700" type="line"/>
      <point x="324" y="700" type="line"/>
      <point x="434" y="77" type="line"/>
      <point x="524" y="700" type="line"/>
      <point x="564" y="700" type="line"/>
      <point x="457" y="-2" type="line"/>
      <point x="415" y="-2" type="line"/>
      <point x="303" y="622" type="line"/>
      <point x="192" y="-2" type="line"/>
    </contour>
  </outline>
</glyph>
<glyph name="X" format="1">
  <advance width="425"/>
  <unicode hex="0058"/>
  <outline>
    <contour>
      <point x="211" y="319" type="line"/>
      <point x="78" y="0" type="line"/>
      <point x="39" y="0" type="line"/>
      <point x="192" y="362" type="line"/>
      <point x="50" y="700" type="line"/>
      <point x="93" y="700" type="line"/>
      <point x="214" y="407" type="line"/>
      <point x="336" y="700" type="line"/>
      <point x="375" y="700" type="line"/>
      <point x="232" y="364" type="line"/>
      <point x="386" y="0" type="line"/>
      <point x="343" y="0" type="line"/>
    </contour>
  </outline>
</glyph>
<glyph name="Y" format="1">
  <advance width="434"/>
  <unicode hex="0059"/>
  <outline>
    <contour>
      <point x="196" y="0" type="line"/>
      <point x="196" y="291" type="line"/>
      <point x="33" y="700" type="line"/>
      <point x="77" y="700" type="line"/>
      <point x="217" y="335" type="line"/>
      <point x="358" y="700" type="line"/>
      <point x="400" y="700" type="line"/>
      <point x="237" y="291" type="line"/>
      <point x="237" y="0" type="line"/>
    </contour>
  </outline>
</glyph>
<glyph name="Z" format="1">
  <advance width="407"/>
  <unicode hex="005A"/>
  <outline>
    <contour>
      <point x="41" y="0" type="line"/>
      <point x="41" y="37" type="line"/>
      <point x="41" y="37"/>
      <point x="313" y="655"/>
      <point x="316" y="662" type="curve"/>
      <point x="58" y="662" type="line"/>
      <point x="58" y="700" type="line"/>
      <point x="358" y="700" type="line"/>
      <point x="358" y="663" type="line"/>
      <point x="358" y="663"/>
      <point x="87" y="45"/>
      <point x="83" y="38" type="curve"/>
      <point x="358" y="38" type="line"/>
      <point x="358" y="0" type="line"/>
    </contour>
  </outline>
</glyph>
<glyph name="bracketleft" format="1">
  <advance width="257"/>
  <unicode hex="005B"/>
  <outline>
    <contour>
      <point x="73" y="-104" type="line"/>
      <point x="73" y="700" type="line"/>
      <point x="214" y="700" type="line"/>
      <point x="214" y="664" type="line"/>
      <point x="113" y="664" type="line"/>
      <point x="113" y="-68" type="line"/>
      <point x="214" y="-68" type="line"/>
      <point x="214" y="-104" type="line"/>
    </contour>
  </outline>
</glyph>
<glyph name="backslash" format="1">
  <advance width="282"/>
  <unicode hex="005C"/>
  <outline>
    <contour>
      <point x="232" y="-90" type="line"/>
      <point x="12" y="790" type="line"/>
      <point x="50" y="790" type="line"/>
      <point x="270" y="-90" type="line"/>
    </contour>
  </outline>
</glyph>
<glyph name="bracketright" format="1">
  <advance width="257"/>
  <unicode hex="005D"/>
  <outline>
    <contour>
      <point x="42" y="-104" type="line"/>
      <point x="42" y="-68" type="line"/>
      <point x="144" y="-68" type="line"/>
      <point x="144" y="664" type="line"/>
      <point x="42" y="664" type="line"/>
      <point x="42" y="700" type="line"/>
      <point x="183" y="700" type="line"/>
      <point x="183" y="-104" type="line"/>
    </contour>
  </outline>
</glyph>
<glyph name="asciicircum" format="1">
  <advance width="394"/>
  <unicode hex="005E"/>
  <outline>
    <contour>
      <point x="39" y="382" type="line"/>
      <point x="180" y="700" type="line"/>
      <point x="214" y="700" type="line"/>
      <point x="354" y="382" type="line"/>
      <point x="310" y="382" type="line"/>
      <point x="196" y="648" type="line"/>
      <point x="83" y="382" type="line"/>
    </contour>
  </outline>
</glyph>
<glyph name="underscore" format="1">
  <advance width="339"/>
  <unicode hex="005F"/>
  <outline>
    <contour>
      <point x="-3" y="-133" type="line"/>
      <point x="-3" y="-97" type="line"/>
      <point x="342" y="-97" type="line"/>
      <point x="342" y="-133" type="line"/>
    </contour>
  </outline>
</glyph>
<glyph name="grave" format="1">
  <advance width="390"/>
  <unicode hex="0060"/>
  <outline>
    <contour>
      <point x="186" y="597" type="line"/>
      <point x="73" y="752" type="line"/>
      <point x="129" y="752" type="line"/>
      <point x="216" y="597" type="line"/>
    </contour>
  </outline>
</glyph>
<glyph name="a" format="1">
  <advance width="399"/>
  <unicode hex="0061"/>
  <outline>
    <contour>
      <point x="175" y="-10" type="curve" smooth="yes"/>
      <point x="99" y="-10"/>
      <point x="41" y="37"/>
      <point x="41" y="159" type="curve" smooth="yes"/>
      <point x="41" y="276"/>
      <point x="101" y="327"/>
      <point x="185" y="327" type="curve" smooth="yes"/>
      <point x="232" y="327"/>
      <point x="271" y="312"/>
      <point x="296" y="295" type="curve"/>
      <point x="296" y="390" type="line" smooth="yes"/>
      <point x="296" y="471"/>
      <point x="267" y="498"/>
      <point x="209" y="498" type="curve" smooth="yes"/>
      <point x="153" y="498"/>
      <point x="108" y="468"/>
      <point x="90" y="454" type="curve"/>
      <point x="71" y="485" type="line"/>
      <point x="87" y="498"/>
      <point x="141" y="535"/>
      <point x="207" y="535" type="curve" smooth="yes"/>
      <point x="294" y="535"/>
      <point x="336" y="499"/>
      <point x="336" y="394" type="curve" smooth="yes"/>
      <point x="336" y="0" type="line"/>
      <point x="296" y="0" type="line"/>
      <point x="296" y="50" type="line"/>
      <point x="276" y="25"/>
      <point x="232" y="-10"/>
    </contour>
    <contour>
      <point x="184" y="26" type="curve" smooth="yes"/>
      <point x="231" y="26"/>
      <point x="271" y="58"/>
      <point x="296" y="93" type="curve"/>
      <point x="296" y="259" type="line"/>
      <point x="267" y="279"/>
      <point x="231" y="291"/>
      <point x="187" y="291" type="curve" smooth="yes"/>
      <point x="121" y="291"/>
      <point x="81" y="248"/>
      <point x="81" y="159" type="curve" smooth="yes"/>
      <point x="81" y="69"/>
      <point x="119" y="26"/>
    </contour>
  </outline>
</glyph>
<glyph name="c" format="1">
  <advance width="373"/>
  <unicode hex="0063"/>
  <outline>
    <contour>
      <point x="212" y="-10" type="curve" smooth="yes"/>
      <point x="108" y="-10"/>
      <point x="46" y="88"/>
      <point x="46" y="261" type="curve" smooth="yes"/>
      <point x="46" y="434"/>
      <point x="109" y="535"/>
      <point x="213" y="535" type="curve" smooth="yes"/>
      <point x="294" y="535"/>
      <point x="328" y="458"/>
      <point x="334" y="437" type="curve"/>
      <point x="302" y="418" type="line"/>
      <point x="293" y="443"/>
      <point x="265" y="498"/>
      <point x="213" y="498" type="curve" smooth="yes"/>
      <point x="128" y="498"/>
      <point x="86" y="406"/>
      <point x="86" y="263" type="curve" smooth="yes"/>
      <point x="86" y="120"/>
      <point x="127" y="27"/>
      <point x="212" y="27" type="curve" smooth="yes"/>
      <point x="264" y="27"/>
      <point x="293" y="83"/>
      <point x="304" y="106" type="curve"/>
      <point x="333" y="86" type="line"/>
      <point x="323" y="62"/>
      <point x="284" y="-10"/>
    </contour>
  </outline>
</glyph>
<glyph name="d" format="1">
  <advance width="417"/>
  <unicode hex="0064"/>
  <outline>
    <contour>
      <point x="351" y="729" type="line"/>
      <point x="351" y="0" type="line"/>
      <point x="311" y="0" type="line"/>
      <point x="311" y="50" type="line"/>
      <point x="291" y="25"/>
      <point x="247" y="-10"/>
      <point x="190" y="-10" type="curve" smooth="yes"/>
      <point x="100" y="-10"/>
      <point x="46" y="72"/>
      <point x="46" y="260" type="curve" smooth="yes"/>
      <point x="46" y="450"/>
      <point x="103" y="535"/>
      <point x="194" y="535" type="curve" smooth="yes"/>
      <point x="251" y="535"/>
      <point x="291" y="501"/>
      <point x="311" y="477" type="curve"/>
      <point x="311" y="705" type="line"/>
    </contour>
    <contour>
      <point x="196" y="498" type="curve" smooth="yes"/>
      <point x="125" y="498"/>
      <point x="86" y="421"/>
      <point x="86" y="260" type="curve" smooth="yes"/>
      <point x="86" y="94"/>
      <point x="128" y="27"/>
      <point x="199" y="27" type="curve" smooth="yes"/>
      <point x="246" y="27"/>
      <point x="286" y="58"/>
      <point x="311" y="93" type="curve"/>
      <point x="311" y="431" type="line"/>
      <point x="286" y="468"/>
      <point x="246" y="498"/>
    </contour>
  </outline>
</glyph>
<glyph name="e" format="1">
  <advance width="405"/>
  <unicode hex="0065"/>
  <outline>
    <contour>
      <point x="202" y="-10" type="curve" smooth="yes"/>
      <point x="112" y="-10"/>
      <point x="46" y="85"/>
      <point x="46" y="262" type="curve" smooth="yes"/>
      <point x="46" y="432"/>
      <point x="109" y="535"/>
      <point x="206" y="535" type="curve" smooth="yes"/>
      <point x="306" y="535"/>
      <point x="357" y="430"/>
      <point x="357" y="269" type="curve" smooth="yes"/>
      <point x="357" y="261"/>
      <point x="357" y="255"/>
      <point x="357" y="250" type="curve"/>
      <point x="85" y="250" type="line"/>
      <point x="85" y="250"/>
      <point x="85" y="248"/>
      <point x="85" y="247" type="curve" smooth="yes"/>
      <point x="89" y="114"/>
      <point x="131" y="27"/>
      <point x="204" y="27" type="curve" smooth="yes"/>
      <point x="265" y="27"/>
      <point x="303" y="77"/>
      <point x="318" y="98" type="curve"/>
      <point x="343" y="72" type="line"/>
      <point x="324" y="45"/>
      <point x="279" y="-10"/>
    </contour>
    <contour>
      <point x="86" y="286" type="curve"/>
      <point x="318" y="286" type="line"/>
      <point x="318" y="286"/>
      <point x="318" y="291"/>
      <point x="318" y="292" type="curve" smooth="yes"/>
      <point x="315" y="412"/>
      <point x="279" y="498"/>
      <point x="205" y="498" type="curve" smooth="yes"/>
      <point x="137" y="498"/>
      <point x="90" y="422"/>
    </contour>
  </outline>
</glyph>
<glyph name="f" format="1">
  <advance width="249"/>
  <unicode hex="0066"/>
  <outline>
    <contour>
      <point x="89" y="0" type="line"/>
      <point x="89" y="490" type="line"/>
      <point x="29" y="490" type="line"/>
      <point x="29" y="525" type="line"/>
      <point x="89" y="525" type="line"/>
      <point x="89" y="617" type="line" smooth="yes"/>
      <point x="89" y="703"/>
      <point x="131" y="726"/>
      <point x="186" y="726" type="curve" smooth="yes"/>
      <point x="203" y="726"/>
      <point x="219" y="723"/>
      <point x="233" y="718" type="curve"/>
      <point x="233" y="679" type="line"/>
      <point x="219" y="684"/>
      <point x="204" y="688"/>
      <point x="187" y="688" type="curve" smooth="yes"/>
      <point x="153" y="688"/>
      <point x="129" y="672"/>
      <point x="129" y="620" type="curve" smooth="yes"/>
      <point x="129" y="525" type="line"/>
      <point x="220" y="525" type="line"/>
      <point x="220" y="490" type="line"/>
      <point x="129" y="490" type="line"/>
      <point x="129" y="0" type="line"/>
    </contour>
  </outline>
</glyph>
<glyph name="g" format="1">
  <advance width="417"/>
  <unicode hex="0067"/>
  <outline>
    <contour>
      <point x="311" y="50" type="line"/>
      <point x="291" y="25"/>
      <point x="247" y="-10"/>
      <point x="190" y="-10" type="curve" smooth="yes"/>
      <point x="100" y="-10"/>
      <point x="46" y="72"/>
      <point x="46" y="260" type="curve" smooth="yes"/>
      <point x="46" y="450"/>
      <point x="103" y="535"/>
      <point x="194" y="535" type="curve" smooth="yes"/>
      <point x="251" y="535"/>
      <point x="291" y="501"/>
      <point x="311" y="477" type="curve"/>
      <point x="311" y="525" type="line"/>
      <point x="351" y="525" type="line"/>
      <point x="351" y="37" type="line" smooth="yes"/>
      <point x="351" y="-110"/>
      <point x="303" y="-170"/>
      <point x="160" y="-192" type="curve"/>
      <point x="145" y="-159" type="line"/>
      <point x="274" y="-140"/>
      <point x="311" y="-95"/>
      <point x="311" y="23" type="curve" smooth="yes"/>
    </contour>
    <contour>
      <point x="196" y="498" type="curve" smooth="yes"/>
      <point x="125" y="498"/>
      <point x="86" y="421"/>
      <point x="86" y="260" type="curve" smooth="yes"/>
      <point x="86" y="94"/>
      <point x="128" y="27"/>
      <point x="199" y="27" type="curve" smooth="yes"/>
      <point x="246" y="27"/>
      <point x="286" y="58"/>
      <point x="311" y="93" type="curve"/>
      <point x="311" y="431" type="line"/>
      <point x="286" y="468"/>
      <point x="246" y="498"/>
    </contour>
  </outline>
</glyph>
<glyph name="h" format="1">
  <advance width="424"/>
  <unicode hex="0068"/>
  <outline>
    <contour>
      <point x="66" y="0" type="line"/>
      <point x="66" y="705" type="line"/>
      <point x="106" y="729" type="line"/>
      <point x="106" y="470" type="line"/>
      <point x="117" y="486"/>
      <point x="161" y="535"/>
      <point x="233" y="535" type="curve" smooth="yes"/>
      <point x="328" y="535"/>
      <point x="362" y="474"/>
      <point x="362" y="371" type="curve" smooth="yes"/>
      <point x="362" y="0" type="line"/>
      <point x="322" y="0" type="line"/>
      <point x="322" y="367" type="line" smooth="yes"/>
      <point x="322" y="459"/>
      <point x="293" y="498"/>
      <point x="227" y="498" type="curve" smooth="yes"/>
      <point x="185" y="498"/>
      <point x="136" y="471"/>
      <point x="106" y="422" type="curve"/>
      <point x="106" y="0" type="line"/>
    </contour>
  </outline>
</glyph>
<glyph name="j" format="1">
  <advance width="183"/>
  <unicode hex="006A"/>
  <outline>
    <contour>
      <point x="92" y="710" type="curve" smooth="yes"/>
      <point x="112" y="710"/>
      <point x="128" y="693"/>
      <point x="128" y="672" type="curve" smooth="yes"/>
      <point x="128" y="651"/>
      <point x="112" y="635"/>
      <point x="92" y="635" type="curve" smooth="yes"/>
      <point x="72" y="635"/>
      <point x="56" y="651"/>
      <point x="56" y="672" type="curve" smooth="yes"/>
      <point x="56" y="693"/>
      <point x="72" y="710"/>
    </contour>
    <contour>
      <point x="8" y="-191" type="curve"/>
      <point x="-13" y="-160" type="line"/>
      <point x="61" y="-132"/>
      <point x="71" y="-105"/>
      <point x="71" y="-8" type="curve" smooth="yes"/>
      <point x="71" y="525" type="line"/>
      <point x="111" y="525" type="line"/>
      <point x="111" y="-10" type="line" smooth="yes"/>
      <point x="111" y="-108"/>
      <point x="101" y="-158"/>
    </contour>
  </outline>
</glyph>
<glyph name="k" format="1">
  <advance width="376"/>
  <unicode hex="006B"/>
  <outline>
    <contour>
      <point x="204" y="324" type="curve"/>
      <point x="349" y="0" type="line"/>
      <point x="306" y="0" type="line"/>
      <point x="180" y="284" type="line"/>
      <point x="106" y="166" type="line"/>
      <point x="106" y="0" type="line"/>
      <point x="66" y="0" type="line"/>
      <point x="66" y="705" type="line"/>
      <point x="106" y="729" type="line"/>
      <point x="106" y="228" type="line"/>
      <point x="288" y="525" type="line"/>
      <point x="330" y="525" type="line"/>
      <point x="330" y="525"/>
      <point x="205" y="324"/>
    </contour>
  </outline>
</glyph>
<glyph name="m" format="1">
  <advance width="652"/>
  <unicode hex="006D"/>
  <outline>
    <contour>
      <point x="346" y="421" type="curve"/>
      <point x="348" y="406"/>
      <point x="349" y="389"/>
      <point x="349" y="371" type="curve" smooth="yes"/>
      <point x="349" y="0" type="line"/>
      <point x="309" y="0" type="line"/>
      <point x="309" y="367" type="line" smooth="yes"/>
      <point x="309" y="459"/>
      <point x="287" y="498"/>
      <point x="221" y="498" type="curve" smooth="yes"/>
      <point x="179" y="498"/>
      <point x="136" y="471"/>
      <point x="106" y="422" type="curve"/>
      <point x="106" y="0" type="line"/>
      <point x="66" y="0" type="line"/>
      <point x="66" y="525" type="line"/>
      <point x="106" y="525" type="line"/>
      <point x="106" y="470" type="line"/>
      <point x="117" y="486"/>
      <point x="155" y="535"/>
      <point x="227" y="535" type="curve" smooth="yes"/>
      <point x="290" y="535"/>
      <point x="324" y="507"/>
      <point x="338" y="461" type="curve"/>
      <point x="364" y="496"/>
      <point x="403" y="535"/>
      <point x="468" y="535" type="curve" smooth="yes"/>
      <point x="563" y="535"/>
      <point x="590" y="474"/>
      <point x="590" y="371" type="curve" smooth="yes"/>
      <point x="590" y="0" type="line"/>
      <point x="550" y="0" type="line"/>
      <point x="550" y="367" type="line" smooth="yes"/>
      <point x="550" y="459"/>
      <point x="528" y="498"/>
      <point x="462" y="498" type="curve" smooth="yes"/>
      <point x="414" y="498"/>
      <point x="372" y="464"/>
    </contour>
  </outline>
</glyph>
<glyph name="o" format="1">
  <advance width="426"/>
  <unicode hex="006F"/>
  <outline>
    <contour>
      <point x="213" y="535" type="curve" smooth="yes"/>
      <point x="316" y="535"/>
      <point x="380" y="436"/>
      <point x="380" y="263" type="curve" smooth="yes"/>
      <point x="380" y="90"/>
      <point x="315" y="-10"/>
      <point x="212" y="-10" type="curve" smooth="yes"/>
      <point x="109" y="-10"/>
      <point x="46" y="88"/>
      <point x="46" y="261" type="curve" smooth="yes"/>
      <point x="46" y="434"/>
      <point x="110" y="535"/>
    </contour>
    <contour>
      <point x="212" y="27" type="curve" smooth="yes"/>
      <point x="297" y="27"/>
      <point x="340" y="118"/>
      <point x="340" y="261" type="curve" smooth="yes"/>
      <point x="340" y="404"/>
      <point x="298" y="498"/>
      <point x="213" y="498" type="curve" smooth="yes"/>
      <point x="128" y="498"/>
      <point x="86" y="406"/>
      <point x="86" y="263" type="curve" smooth="yes"/>
      <point x="86" y="120"/>
      <point x="127" y="27"/>
    </contour>
  </outline>
</glyph>
<glyph name="r" format="1">
  <advance width="295"/>
  <unicode hex="0072"/>
  <outline>
    <contour>
      <point x="66" y="0" type="line"/>
      <point x="66" y="525" type="line"/>
      <point x="106" y="525" type="line"/>
      <point x="106" y="469" type="line"/>
      <point x="126" y="507"/>
      <point x="163" y="534"/>
      <point x="213" y="534" type="curve" smooth="yes"/>
      <point x="242" y="534"/>
      <point x="259" y="530"/>
      <point x="275" y="524" type="curve"/>
      <point x="264" y="482" type="line"/>
      <point x="251" y="488"/>
      <point x="228" y="495"/>
      <point x="208" y="495" type="curve" smooth="yes"/>
      <point x="169" y="495"/>
      <point x="127" y="476"/>
      <point x="106" y="416" type="curve"/>
      <point x="106" y="0" type="line"/>
    </contour>
  </outline>
</glyph>
<glyph name="s" format="1">
  <advance width="350"/>
  <unicode hex="0073"/>
  <outline>
    <contour>
      <point x="175" y="-10" type="curve" smooth="yes"/>
      <point x="93" y="-10"/>
      <point x="51" y="53"/>
      <point x="38" y="76" type="curve"/>
      <point x="66" y="100" type="line"/>
      <point x="80" y="78"/>
      <point x="116" y="27"/>
      <point x="176" y="27" type="curve" smooth="yes"/>
      <point x="234" y="27"/>
      <point x="267" y="64"/>
      <point x="267" y="116" type="curve" smooth="yes"/>
      <point x="267" y="173"/>
      <point x="244" y="205"/>
      <point x="164" y="257" type="curve" smooth="yes"/>
      <point x="85" y="308"/>
      <point x="48" y="343"/>
      <point x="48" y="415" type="curve" smooth="yes"/>
      <point x="48" y="484"/>
      <point x="93" y="535"/>
      <point x="170" y="535" type="curve" smooth="yes"/>
      <point x="249" y="535"/>
      <point x="287" y="480"/>
      <point x="299" y="460" type="curve"/>
      <point x="271" y="436" type="line"/>
      <point x="256" y="457"/>
      <point x="224" y="498"/>
      <point x="168" y="498" type="curve" smooth="yes"/>
      <point x="118" y="498"/>
      <point x="87" y="465"/>
      <point x="87" y="418" type="curve" smooth="yes"/>
      <point x="87" y="367"/>
      <point x="108" y="340"/>
      <point x="187" y="289" type="curve" smooth="yes"/>
      <point x="269" y="236"/>
      <point x="306" y="199"/>
      <point x="306" y="119" type="curve" smooth="yes"/>
      <point x="306" y="39"/>
      <point x="254" y="-10"/>
    </contour>
  </outline>
</glyph>
<glyph name="t" format="1">
  <advance width="261"/>
  <unicode hex="0074"/>
  <outline>
    <contour>
      <point x="156" y="-8" type="curve" smooth="yes"/>
      <point x="105" y="-8"/>
      <point x="79" y="23"/>
      <point x="79" y="87" type="curve" smooth="yes"/>
      <point x="79" y="490" type="line"/>
      <point x="24" y="490" type="line"/>
      <point x="24" y="525" type="line"/>
      <point x="79" y="525" type="line"/>
      <point x="79" y="698" type="line"/>
      <point x="119" y="721" type="line"/>
      <point x="119" y="525" type="line"/>
      <point x="221" y="525" type="line"/>
      <point x="221" y="490" type="line"/>
      <point x="119" y="490" type="line"/>
      <point x="119" y="91" type="line" smooth="yes"/>
      <point x="119" y="49"/>
      <point x="136" y="30"/>
      <point x="167" y="30" type="curve" smooth="yes"/>
      <point x="190" y="30"/>
      <point x="206" y="34"/>
      <point x="226" y="42" type="curve"/>
      <point x="223" y="5" type="line"/>
      <point x="203" y="-4"/>
      <point x="183" y="-8"/>
    </contour>
  </outline>
</glyph>
<glyph name="u" format="1">
  <advance width="424"/>
  <unicode hex="0075"/>
  <outline>
    <contour>
      <point x="358" y="525" type="line"/>
      <point x="358" y="0" type="line"/>
      <point x="318" y="0" type="line"/>
      <point x="318" y="55" type="line"/>
      <point x="307" y="39"/>
      <point x="263" y="-10"/>
      <point x="191" y="-10" type="curve" smooth="yes"/>
      <point x="96" y="-10"/>
      <point x="62" y="51"/>
      <point x="62" y="154" type="curve" smooth="yes"/>
      <point x="62" y="525" type="line"/>
      <point x="102" y="525" type="line"/>
      <point x="102" y="158" type="line" smooth="yes"/>
      <point x="102" y="66"/>
      <point x="131" y="27"/>
      <point x="197" y="27" type="curve" smooth="yes"/>
      <point x="239" y="27"/>
      <point x="288" y="54"/>
      <point x="318" y="103" type="curve"/>
      <point x="318" y="525" type="line"/>
    </contour>
  </outline>
</glyph>
<glyph name="v" format="1">
  <advance width="384"/>
  <unicode hex="0076"/>
  <outline>
    <contour>
      <point x="168" y="-3" type="line"/>
      <point x="33" y="525" type="line"/>
      <point x="74" y="525" type="line"/>
      <point x="192" y="44" type="line"/>
      <point x="311" y="525" type="line"/>
      <point x="351" y="525" type="line"/>
      <point x="215" y="-3" type="line"/>
    </contour>
  </outline>
</glyph>
<glyph name="w" format="1">
  <advance width="543"/>
  <unicode hex="0077"/>
  <outline>
    <contour>
      <point x="131" y="-3" type="line"/>
      <point x="37" y="525" type="line"/>
      <point x="76" y="525" type="line"/>
      <point x="155" y="57" type="line"/>
      <point x="252" y="526" type="line"/>
      <point x="292" y="526" type="line"/>
      <point x="388" y="57" type="line"/>
      <point x="467" y="525" type="line"/>
      <point x="505" y="525" type="line"/>
      <point x="411" y="-3" type="line"/>
      <point x="369" y="-3" type="line"/>
      <point x="271" y="473" type="line"/>
      <point x="173" y="-3" type="line"/>
    </contour>
  </outline>
</glyph>
<glyph name="x" format="1">
  <advance width="367"/>
  <unicode hex="0078"/>
  <outline>
    <contour>
      <point x="162" y="279" type="line"/>
      <point x="49" y="525" type="line"/>
      <point x="91" y="525" type="line"/>
      <point x="186" y="316" type="line"/>
      <point x="278" y="525" type="line"/>
      <point x="318" y="525" type="line"/>
      <point x="205" y="276" type="line"/>
      <point x="332" y="0" type="line"/>
      <point x="290" y="0" type="line"/>
      <point x="182" y="239" type="line"/>
      <point x="76" y="0" type="line"/>
      <point x="36" y="0" type="line"/>
    </contour>
  </outline>
</glyph>
<glyph name="y" format="1">
  <advance width="387"/>
  <unicode hex="0079"/>
  <outline>
    <contour>
      <point x="171" y="-6" type="line"/>
      <point x="32" y="525" type="line"/>
      <point x="75" y="525" type="line"/>
      <point x="192" y="59" type="line"/>
      <point x="315" y="525" type="line"/>
      <point x="354" y="525" type="line"/>
      <point x="162" y="-185" type="line"/>
      <point x="123" y="-185" type="line"/>
    </contour>
  </outline>
</glyph>
<glyph name="z" format="1">
  <advance width="358"/>
  <unicode hex="007A"/>
  <outline>
    <contour>
      <point x="38" y="0" type="line"/>
      <point x="38" y="31" type="line"/>
      <point x="268" y="490" type="line"/>
      <point x="58" y="490" type="line"/>
      <point x="58" y="525" type="line"/>
      <point x="312" y="525" type="line"/>
      <point x="312" y="494" type="line"/>
      <point x="82" y="35" type="line"/>
      <point x="312" y="35" type="line"/>
      <point x="312" y="0" type="line"/>
    </contour>
  </outline>
</glyph>
<glyph name="braceleft" format="1">
  <advance width="290"/>
  <unicode hex="007B"/>
  <outline>
    <contour>
      <point x="260" y="-109" type="line"/>
      <point x="156" y="-102"/>
      <point x="111" y="-55"/>
      <point x="111" y="69" type="curve" smooth="yes"/>
      <point x="111" y="200" type="line" smooth="yes"/>
      <point x="111" y="253"/>
      <point x="92" y="279"/>
      <point x="51" y="279" type="curve" smooth="yes"/>
      <point x="29" y="279" type="line"/>
      <point x="29" y="316" type="line"/>
      <point x="51" y="316" type="line" smooth="yes"/>
      <point x="92" y="316"/>
      <point x="111" y="341"/>
      <point x="111" y="395" type="curve" smooth="yes"/>
      <point x="111" y="527" type="line" smooth="yes"/>
      <point x="111" y="651"/>
      <point x="156" y="698"/>
      <point x="260" y="705" type="curve"/>
      <point x="260" y="672" type="line"/>
      <point x="181" y="662"/>
      <point x="150" y="629"/>
      <point x="150" y="533" type="curve" smooth="yes"/>
      <point x="150" y="403" type="line" smooth="yes"/>
      <point x="150" y="343"/>
      <point x="135" y="312"/>
      <point x="94" y="298" type="curve"/>
      <point x="135" y="284"/>
      <point x="150" y="252"/>
      <point x="150" y="191" type="curve" smooth="yes"/>
      <point x="150" y="63" type="line" smooth="yes"/>
      <point x="150" y="-33"/>
      <point x="181" y="-66"/>
      <point x="260" y="-76" type="curve"/>
    </contour>
  </outline>
</glyph>
<glyph name="bar" format="1">
  <advance width="213"/>
  <unicode hex="007C"/>
  <outline>
    <contour>
      <point x="87" y="-185" type="line"/>
      <point x="87" y="800" type="line"/>
      <point x="126" y="800" type="line"/>
      <point x="126" y="-185" type="line"/>
    </contour>
  </outline>
</glyph>
<glyph name="braceright" format="1">
  <advance width="290"/>
  <unicode hex="007D"/>
  <outline>
    <contour>
      <point x="30" y="-109" type="curve"/>
      <point x="30" y="-76" type="line"/>
      <point x="109" y="-66"/>
      <point x="140" y="-33"/>
      <point x="140" y="63" type="curve" smooth="yes"/>
      <point x="140" y="192" type="line" smooth="yes"/>
      <point x="140" y="253"/>
      <point x="155" y="284"/>
      <point x="195" y="298" type="curve"/>
      <point x="155" y="312"/>
      <point x="140" y="344"/>
      <point x="140" y="404" type="curve" smooth="yes"/>
      <point x="140" y="533" type="line" smooth="yes"/>
      <point x="140" y="629"/>
      <point x="109" y="662"/>
      <point x="30" y="672" type="curve"/>
      <point x="30" y="705" type="line"/>
      <point x="134" y="698"/>
      <point x="178" y="651"/>
      <point x="178" y="527" type="curve" smooth="yes"/>
      <point x="178" y="396" type="line" smooth="yes"/>
      <point x="178" y="343"/>
      <point x="197" y="317"/>
      <point x="238" y="317" type="curve" smooth="yes"/>
      <point x="261" y="317" type="line"/>
      <point x="261" y="280" type="line"/>
      <point x="238" y="280" type="line" smooth="yes"/>
      <point x="197" y="280"/>
      <point x="178" y="254"/>
      <point x="178" y="201" type="curve" smooth="yes"/>
      <point x="178" y="69" type="line" smooth="yes"/>
      <point x="178" y="-55"/>
      <point x="134" y="-102"/>
    </contour>
  </outline>
</glyph>
<glyph name="asciitilde" format="1">
  <advance width="377"/>
  <unicode hex="007E"/>
  <outline>
    <contour>
      <point x="68" y="309" type="curve"/>
      <point x="35" y="321" type="line"/>
      <point x="53" y="390"/>
      <point x="80" y="437"/>
      <point x="124" y="437" type="curve" smooth="yes"/>
      <point x="181" y="437"/>
      <point x="217" y="347"/>
      <point x="252" y="347" type="curve" smooth="yes"/>
      <point x="276" y="347"/>
      <point x="292" y="375"/>
      <point x="308" y="434" type="curve"/>
      <point x="341" y="422" type="line"/>
      <point x="323" y="354"/>
      <point x="296" y="306"/>
      <point x="252" y="306" type="curve" smooth="yes"/>
      <point x="195" y="306"/>
      <point x="159" y="396"/>
      <point x="124" y="396" type="curve" smooth="yes"/>
      <point x="100" y="396"/>
      <point x="85" y="367"/>
    </contour>
  </outline>
</glyph>
<glyph name="exclamdown" format="1">
  <advance width="191"/>
  <unicode hex="00A1"/>
  <outline>
    <contour>
      <point x="97" y="627" type="curve" smooth="yes"/>
      <point x="77" y="627"/>
      <point x="60" y="645"/>
      <point x="60" y="666" type="curve" smooth="yes"/>
      <point x="60" y="687"/>
      <point x="77" y="704"/>
      <point x="97" y="704" type="curve" smooth="yes"/>
      <point x="117" y="704"/>
      <point x="134" y="687"/>
      <point x="134" y="666" type="curve" smooth="yes"/>
      <point x="134" y="645"/>
      <point x="117" y="627"/>
    </contour>
    <contour>
      <point x="109" y="550" type="line"/>
      <point x="117" y="341" type="line"/>
      <point x="117" y="0" type="line"/>
      <point x="76" y="0" type="line"/>
      <point x="76" y="341" type="line"/>
      <point x="84" y="550" type="line"/>
    </contour>
  </outline>
</glyph>
<glyph name="cent" format="1">
  <advance width="373"/>
  <unicode hex="00A2"/>
  <outline>
    <contour>
      <point x="185" y="624" type="curve"/>
      <point x="185" y="720" type="line"/>
      <point x="226" y="720" type="line"/>
      <point x="226" y="626" type="line"/>
      <point x="298" y="618"/>
      <point x="328" y="548"/>
      <point x="334" y="529" type="curve"/>
      <point x="302" y="510" type="line"/>
      <point x="293" y="535"/>
      <point x="265" y="590"/>
      <point x="213" y="590" type="curve" smooth="yes"/>
      <point x="128" y="590"/>
      <point x="86" y="498"/>
      <point x="86" y="355" type="curve" smooth="yes"/>
      <point x="86" y="212"/>
      <point x="127" y="119"/>
      <point x="212" y="119" type="curve" smooth="yes"/>
      <point x="264" y="119"/>
      <point x="293" y="175"/>
      <point x="304" y="198" type="curve"/>
      <point x="333" y="178" type="line"/>
      <point x="324" y="156"/>
      <point x="289" y="91"/>
      <point x="226" y="83" type="curve"/>
      <point x="226" y="-13" type="line"/>
      <point x="185" y="-13" type="line"/>
      <point x="185" y="84" type="line"/>
      <point x="97" y="100"/>
      <point x="46" y="196"/>
      <point x="46" y="353" type="curve" smooth="yes"/>
      <point x="46" y="510"/>
      <point x="98" y="608"/>
    </contour>
  </outline>
</glyph>
<glyph name="sterling" format="1">
  <advance width="413"/>
  <unicode hex="00A3"/>
  <outline>
    <contour>
      <point x="164" y="308" type="line"/>
      <point x="165" y="300"/>
      <point x="165" y="290"/>
      <point x="165" y="281" type="curve" smooth="yes"/>
      <point x="165" y="181"/>
      <point x="130" y="98"/>
      <point x="99" y="39" type="curve"/>
      <point x="376" y="39" type="line"/>
      <point x="376" y="0" type="line"/>
      <point x="56" y="0" type="line"/>
      <point x="56" y="40" type="line"/>
      <point x="87" y="101"/>
      <point x="124" y="178"/>
      <point x="124" y="281" type="curve" smooth="yes"/>
      <point x="124" y="290"/>
      <point x="124" y="299"/>
      <point x="123" y="308" type="curve"/>
      <point x="56" y="308" type="line"/>
      <point x="56" y="346" type="line"/>
      <point x="118" y="346" type="line"/>
      <point x="105" y="421"/>
      <point x="72" y="473"/>
      <point x="72" y="554" type="curve" smooth="yes"/>
      <point x="72" y="652"/>
      <point x="131" y="710"/>
      <point x="218" y="710" type="curve" smooth="yes"/>
      <point x="321" y="710"/>
      <point x="357" y="631"/>
      <point x="371" y="592" type="curve"/>
      <point x="336" y="572" type="line"/>
      <point x="320" y="614"/>
      <point x="290" y="672"/>
      <point x="218" y="672" type="curve" smooth="yes"/>
      <point x="149" y="672"/>
      <point x="113" y="627"/>
      <point x="113" y="555" type="curve" smooth="yes"/>
      <point x="113" y="478"/>
      <point x="146" y="422"/>
      <point x="159" y="346" type="curve"/>
      <point x="281" y="346" type="line"/>
      <point x="281" y="308" type="line"/>
    </contour>
  </outline>
</glyph>
<glyph name="yen" format="1">
  <advance width="425"/>
  <unicode hex="00A5"/>
  <outline>
    <contour>
      <point x="192" y="0" type="line"/>
      <point x="192" y="150" type="line"/>
      <point x="84" y="150" type="line"/>
      <point x="84" y="187" type="line"/>
      <point x="192" y="187" type="line"/>
      <point x="192" y="294" type="line"/>
      <point x="31" y="700" type="line"/>
      <point x="76" y="700" type="line"/>
      <point x="76" y="700"/>
      <point x="206" y="360"/>
      <point x="213" y="337" type="curve"/>
      <point x="219" y="360"/>
      <point x="351" y="700"/>
      <point x="351" y="700" type="curve"/>
      <point x="394" y="700" type="line"/>
      <point x="232" y="295" type="line"/>
      <point x="232" y="187" type="line"/>
      <point x="339" y="187" type="line"/>
      <point x="339" y="150" type="line"/>
      <point x="232" y="150" type="line"/>
      <point x="232" y="0" type="line"/>
    </contour>
  </outline>
</glyph>
<glyph name="section" format="1">
  <advance width="428"/>
  <unicode hex="00A7"/>
  <outline>
    <contour>
      <point x="153" y="457" type="curve"/>
      <point x="116" y="486"/>
      <point x="89" y="523"/>
      <point x="89" y="582" type="curve" smooth="yes"/>
      <point x="89" y="652"/>
      <point x="132" y="710"/>
      <point x="218" y="710" type="curve" smooth="yes"/>
      <point x="300" y="710"/>
      <point x="340" y="651"/>
      <point x="354" y="600" type="curve"/>
      <point x="317" y="584" type="line"/>
      <point x="303" y="631"/>
      <point x="273" y="672"/>
      <point x="218" y="672" type="curve" smooth="yes"/>
      <point x="167" y="672"/>
      <point x="131" y="642"/>
      <point x="131" y="583" type="curve" smooth="yes"/>
      <point x="131" y="514"/>
      <point x="182" y="483"/>
      <point x="245" y="446" type="curve" smooth="yes"/>
      <point x="319" y="403"/>
      <point x="393" y="363"/>
      <point x="393" y="258" type="curve" smooth="yes"/>
      <point x="393" y="171"/>
      <point x="337" y="119"/>
      <point x="283" y="90" type="curve"/>
      <point x="321" y="61"/>
      <point x="348" y="24"/>
      <point x="348" y="-35" type="curve" smooth="yes"/>
      <point x="348" y="-105"/>
      <point x="305" y="-163"/>
      <point x="219" y="-163" type="curve" smooth="yes"/>
      <point x="137" y="-163"/>
      <point x="97" y="-104"/>
      <point x="83" y="-53" type="curve"/>
      <point x="120" y="-37" type="line"/>
      <point x="134" y="-84"/>
      <point x="164" y="-125"/>
      <point x="219" y="-125" type="curve" smooth="yes"/>
      <point x="270" y="-125"/>
      <point x="306" y="-95"/>
      <point x="306" y="-36" type="curve" smooth="yes"/>
      <point x="306" y="33"/>
      <point x="255" y="64"/>
      <point x="192" y="101" type="curve" smooth="yes"/>
      <point x="118" y="144"/>
      <point x="44" y="184"/>
      <point x="44" y="289" type="curve" smooth="yes"/>
      <point x="44" y="376"/>
      <point x="100" y="428"/>
    </contour>
    <contour>
      <point x="250" y="113" type="curve"/>
      <point x="301" y="138"/>
      <point x="351" y="184"/>
      <point x="351" y="256" type="curve" smooth="yes"/>
      <point x="351" y="337"/>
      <point x="299" y="368"/>
      <point x="224" y="412" type="curve" smooth="yes"/>
      <point x="211" y="419"/>
      <point x="199" y="427"/>
      <point x="186" y="434" type="curve"/>
      <point x="136" y="409"/>
      <point x="86" y="363"/>
      <point x="86" y="291" type="curve" smooth="yes"/>
      <point x="86" y="210"/>
      <point x="138" y="179"/>
      <point x="213" y="135" type="curve" smooth="yes"/>
      <point x="226" y="128"/>
      <point x="238" y="120"/>
    </contour>
  </outline>
</glyph>
<glyph name="dieresis" format="1">
  <advance width="390"/>
  <unicode hex="00A8"/>
  <outline>
    <contour>
      <point x="270" y="690" type="curve" smooth="yes"/>
      <point x="290" y="690"/>
      <point x="306" y="673"/>
      <point x="306" y="652" type="curve" smooth="yes"/>
      <point x="306" y="631"/>
      <point x="290" y="615"/>
      <point x="270" y="615" type="curve" smooth="yes"/>
      <point x="250" y="615"/>
      <point x="234" y="631"/>
      <point x="234" y="652" type="curve" smooth="yes"/>
      <point x="234" y="673"/>
      <point x="250" y="690"/>
    </contour>
    <contour>
      <point x="120" y="690" type="curve" smooth="yes"/>
      <point x="140" y="690"/>
      <point x="156" y="673"/>
      <point x="156" y="652" type="curve" smooth="yes"/>
      <point x="156" y="631"/>
      <point x="140" y="615"/>
      <point x="120" y="615" type="curve" smooth="yes"/>
      <point x="100" y="615"/>
      <point x="84" y="631"/>
      <point x="84" y="652" type="curve" smooth="yes"/>
      <point x="84" y="673"/>
      <point x="100" y="690"/>
    </contour>
  </outline>
</glyph>
<glyph name="copyright" format="1">
  <advance width="605"/>
  <unicode hex="00A9"/>
  <outline>
    <contour>
      <point x="302" y="-10" type="curve" smooth="yes"/>
      <point x="145" y="-10"/>
      <point x="45" y="141"/>
      <point x="45" y="350" type="curve" smooth="yes"/>
      <point x="45" y="560"/>
      <point x="145" y="711"/>
      <point x="302" y="711" type="curve" smooth="yes"/>
      <point x="460" y="711"/>
      <point x="560" y="560"/>
      <point x="560" y="350" type="curve" smooth="yes"/>
      <point x="560" y="141"/>
      <point x="460" y="-10"/>
    </contour>
    <contour>
      <point x="302" y="17" type="curve" smooth="yes"/>
      <point x="445" y="17"/>
      <point x="531" y="157"/>
      <point x="531" y="350" type="curve" smooth="yes"/>
      <point x="531" y="543"/>
      <point x="445" y="684"/>
      <point x="302" y="684" type="curve" smooth="yes"/>
      <point x="159" y="684"/>
      <point x="73" y="543"/>
      <point x="73" y="350" type="curve" smooth="yes"/>
      <point x="73" y="157"/>
      <point x="159" y="17"/>
    </contour>
    <contour>
      <point x="300" y="145" type="curve" smooth="yes"/>
      <point x="232" y="145"/>
      <point x="191" y="214"/>
      <point x="191" y="350" type="curve" smooth="yes"/>
      <point x="191" y="487"/>
      <point x="234" y="556"/>
      <point x="302" y="556" type="curve" smooth="yes"/>
      <point x="345" y="556"/>
      <point x="372" y="530"/>
      <point x="390" y="474" type="curve"/>
      <point x="363" y="462" type="line"/>
      <point x="347" y="512"/>
      <point x="330" y="527"/>
      <point x="301" y="527" type="curve" smooth="yes"/>
      <point x="252" y="527"/>
      <point x="221" y="470"/>
      <point x="221" y="351" type="curve" smooth="yes"/>
      <point x="221" y="230"/>
      <point x="253" y="175"/>
      <point x="302" y="175" type="curve" smooth="yes"/>
      <point x="330" y="175"/>
      <point x="349" y="192"/>
      <point x="367" y="240" type="curve"/>
      <point x="392" y="229" type="line"/>
      <point x="374" y="174"/>
      <point x="345" y="145"/>
    </contour>
  </outline>
</glyph>
<glyph name="ordfeminine" format="1">
  <advance width="341"/>
  <unicode hex="00AA"/>
  <outline>
    <contour>
      <point x="151" y="273" type="curve" smooth="yes"/>
      <point x="93" y="273"/>
      <point x="47" y="312"/>
      <point x="47" y="408" type="curve" smooth="yes"/>
      <point x="47" y="504"/>
      <point x="96" y="545"/>
      <point x="163" y="545" type="curve" smooth="yes"/>
      <point x="196" y="545"/>
      <point x="224" y="535"/>
      <point x="245" y="521" type="curve"/>
      <point x="245" y="596" type="line" smooth="yes"/>
      <point x="245" y="653"/>
      <point x="224" y="678"/>
      <point x="176" y="678" type="curve" smooth="yes"/>
      <point x="144" y="678"/>
      <point x="118" y="666"/>
      <point x="89" y="643" type="curve"/>
      <point x="70" y="671" type="line"/>
      <point x="102" y="695"/>
      <point x="137" y="711"/>
      <point x="177" y="711" type="curve" smooth="yes"/>
      <point x="245" y="711"/>
      <point x="281" y="682"/>
      <point x="281" y="599" type="curve" smooth="yes"/>
      <point x="281" y="280" type="line"/>
      <point x="245" y="280" type="line"/>
      <point x="245" y="318" type="line"/>
      <point x="220" y="290"/>
      <point x="189" y="273"/>
    </contour>
    <contour>
      <point x="157" y="305" type="curve" smooth="yes"/>
      <point x="190" y="305"/>
      <point x="222" y="325"/>
      <point x="245" y="354" type="curve"/>
      <point x="245" y="488" type="line"/>
      <point x="222" y="503"/>
      <point x="198" y="513"/>
      <point x="163" y="513" type="curve" smooth="yes"/>
      <point x="113" y="513"/>
      <point x="83" y="479"/>
      <point x="83" y="409" type="curve" smooth="yes"/>
      <point x="83" y="340"/>
      <point x="112" y="305"/>
    </contour>
  </outline>
</glyph>
<glyph name="guillemotleft" format="1">
  <advance width="423"/>
  <unicode hex="00AB"/>
  <outline>
    <contour>
      <point x="343" y="0" type="line"/>
      <point x="186" y="263" type="line"/>
      <point x="343" y="525" type="line"/>
      <point x="386" y="525" type="line"/>
      <point x="229" y="263" type="line"/>
      <point x="386" y="0" type="line"/>
    </contour>
    <contour>
      <point x="181" y="0" type="line"/>
      <point x="24" y="263" type="line"/>
      <point x="181" y="525" type="line"/>
      <point x="224" y="525" type="line"/>
      <point x="67" y="263" type="line"/>
      <point x="224" y="0" type="line"/>
    </contour>
  </outline>
</glyph>
<glyph name="degree" format="1">
  <advance width="354"/>
  <unicode hex="00B0"/>
  <outline>
    <contour>
      <point x="177" y="429" type="curve" smooth="yes"/>
      <point x="98" y="429"/>
      <point x="41" y="490"/>
      <point x="41" y="570" type="curve" smooth="yes"/>
      <point x="41" y="648"/>
      <point x="98" y="709"/>
      <point x="177" y="709" type="curve" smooth="yes"/>
      <point x="256" y="709"/>
      <point x="313" y="648"/>
      <point x="313" y="570" type="curve" smooth="yes"/>
      <point x="313" y="490"/>
      <point x="256" y="429"/>
    </contour>
    <contour>
      <point x="177" y="462" type="curve" smooth="yes"/>
      <point x="236" y="462"/>
      <point x="278" y="508"/>
      <point x="278" y="570" type="curve" smooth="yes"/>
      <point x="278" y="630"/>
      <point x="236" y="676"/>
      <point x="177" y="676" type="curve" smooth="yes"/>
      <point x="117" y="676"/>
      <point x="76" y="630"/>
      <point x="76" y="570" type="curve" smooth="yes"/>
      <point x="76" y="508"/>
      <point x="117" y="462"/>
    </contour>
  </outline>
</glyph>
<glyph name="acute" format="1">
  <advance width="390"/>
  <unicode hex="00B4"/>
  <outline>
    <contour>
      <point x="175" y="597" type="line"/>
      <point x="262" y="752" type="line"/>
      <point x="317" y="752" type="line"/>
      <point x="205" y="597" type="line"/>
    </contour>
  </outline>
</glyph>
<glyph name="paragraph" format="1">
  <advance width="511"/>
  <unicode hex="00B6"/>
  <outline>
    <contour>
      <point x="271" y="-185" type="line"/>
      <point x="271" y="296" type="line"/>
      <point x="232" y="296" type="line" smooth="yes"/>
      <point x="114" y="296"/>
      <point x="34" y="373"/>
      <point x="34" y="500" type="curve" smooth="yes"/>
      <point x="34" y="629"/>
      <point x="120" y="700"/>
      <point x="232" y="700" type="curve" smooth="yes"/>
      <point x="439" y="700" type="line"/>
      <point x="439" y="-185" type="line"/>
      <point x="400" y="-185" type="line"/>
      <point x="400" y="663" type="line"/>
      <point x="311" y="663" type="line"/>
      <point x="311" y="-185" type="line"/>
    </contour>
  </outline>
</glyph>
<glyph name="periodcentered" format="1">
  <advance width="149"/>
  <unicode hex="00B7"/>
  <outline>
    <contour>
      <point x="74" y="406" type="curve" smooth="yes"/>
      <point x="94" y="406"/>
      <point x="111" y="388"/>
      <point x="111" y="367" type="curve" smooth="yes"/>
      <point x="111" y="346"/>
      <point x="94" y="329"/>
      <point x="74" y="329" type="curve" smooth="yes"/>
      <point x="54" y="329"/>
      <point x="37" y="346"/>
      <point x="37" y="367" type="curve" smooth="yes"/>
      <point x="37" y="388"/>
      <point x="54" y="406"/>
    </contour>
  </outline>
</glyph>
<glyph name="cedilla" format="1">
  <advance width="390"/>
  <unicode hex="00B8"/>
  <outline>
    <contour>
      <point x="139" y="-133" type="line"/>
      <point x="163" y="-151"/>
      <point x="188" y="-160"/>
      <point x="209" y="-160" type="curve" smooth="yes"/>
      <point x="241" y="-160"/>
      <point x="263" y="-143"/>
      <point x="263" y="-110" type="curve" smooth="yes"/>
      <point x="263" y="-84"/>
      <point x="250" y="-71"/>
      <point x="227" y="-71" type="curve" smooth="yes"/>
      <point x="210" y="-71"/>
      <point x="196" y="-78"/>
      <point x="186" y="-87" type="curve"/>
      <point x="162" y="-77" type="line"/>
      <point x="193" y="4" type="line"/>
      <point x="220" y="4" type="line"/>
      <point x="198" y="-54" type="line"/>
      <point x="205" y="-50"/>
      <point x="219" y="-45"/>
      <point x="235" y="-45" type="curve" smooth="yes"/>
      <point x="269" y="-45"/>
      <point x="296" y="-64"/>
      <point x="296" y="-110" type="curve" smooth="yes"/>
      <point x="296" y="-164"/>
      <point x="257" y="-189"/>
      <point x="214" y="-189" type="curve" smooth="yes"/>
      <point x="180" y="-189"/>
      <point x="151" y="-178"/>
      <point x="123" y="-156" type="curve"/>
    </contour>
  </outline>
</glyph>
<glyph name="ordmasculine" format="1">
  <advance width="365"/>
  <unicode hex="00BA"/>
  <outline>
    <contour>
      <point x="182" y="711" type="curve" smooth="yes"/>
      <point x="266" y="711"/>
      <point x="315" y="631"/>
      <point x="315" y="492" type="curve" smooth="yes"/>
      <point x="315" y="353"/>
      <point x="266" y="275"/>
      <point x="182" y="275" type="curve" smooth="yes"/>
      <point x="98" y="275"/>
      <point x="50" y="353"/>
      <point x="50" y="492" type="curve" smooth="yes"/>
      <point x="50" y="631"/>
      <point x="98" y="711"/>
    </contour>
    <contour>
      <point x="182" y="310" type="curve" smooth="yes"/>
      <point x="248" y="310"/>
      <point x="278" y="381"/>
      <point x="278" y="492" type="curve" smooth="yes"/>
      <point x="278" y="603"/>
      <point x="248" y="676"/>
      <point x="182" y="676" type="curve" smooth="yes"/>
      <point x="116" y="676"/>
      <point x="87" y="603"/>
      <point x="87" y="492" type="curve" smooth="yes"/>
      <point x="87" y="381"/>
      <point x="116" y="310"/>
    </contour>
  </outline>
</glyph>
<glyph name="guillemotright" format="1">
  <advance width="423"/>
  <unicode hex="00BB"/>
  <outline>
    <contour>
      <point x="242" y="525" type="line"/>
      <point x="399" y="262" type="line"/>
      <point x="242" y="0" type="line"/>
      <point x="199" y="0" type="line"/>
      <point x="356" y="262" type="line"/>
      <point x="199" y="525" type="line"/>
    </contour>
    <contour>
      <point x="80" y="525" type="line"/>
      <point x="237" y="262" type="line"/>
      <point x="80" y="0" type="line"/>
      <point x="37" y="0" type="line"/>
      <point x="194" y="262" type="line"/>
      <point x="37" y="525" type="line"/>
    </contour>
  </outline>
</glyph>
<glyph name="questiondown" format="1">
  <advance width="383"/>
  <unicode hex="00BF"/>
  <outline>
    <contour>
      <point x="211" y="627" type="curve" smooth="yes"/>
      <point x="191" y="627"/>
      <point x="174" y="645"/>
      <point x="174" y="666" type="curve" smooth="yes"/>
      <point x="174" y="687"/>
      <point x="191" y="704"/>
      <point x="211" y="704" type="curve" smooth="yes"/>
      <point x="231" y="704"/>
      <point x="248" y="687"/>
      <point x="248" y="666" type="curve" smooth="yes"/>
      <point x="248" y="645"/>
      <point x="231" y="627"/>
    </contour>
    <contour>
      <point x="349" y="116" type="line"/>
      <point x="333" y="71"/>
      <point x="289" y="-10"/>
      <point x="191" y="-10" type="curve" smooth="yes"/>
      <point x="100" y="-10"/>
      <point x="49" y="51"/>
      <point x="49" y="145" type="curve" smooth="yes"/>
      <point x="49" y="225"/>
      <point x="85" y="274"/>
      <point x="137" y="331" type="curve" smooth="yes"/>
      <point x="184" y="382"/>
      <point x="190" y="413"/>
      <point x="190" y="544" type="curve"/>
      <point x="231" y="544" type="line"/>
      <point x="231" y="400"/>
      <point x="224" y="371"/>
      <point x="165" y="305" type="curve" smooth="yes"/>
      <point x="121" y="256"/>
      <point x="90" y="214"/>
      <point x="90" y="146" type="curve" smooth="yes"/>
      <point x="90" y="78"/>
      <point x="126" y="28"/>
      <point x="191" y="28" type="curve" smooth="yes"/>
      <point x="268" y="28"/>
      <point x="301" y="103"/>
      <point x="314" y="135" type="curve"/>
    </contour>
  </outline>
</glyph>
<glyph name="Aring" format="1">
  <advance width="467"/>
  <unicode hex="00C5"/>
  <outline>
    <contour>
      <point x="262" y="680" type="curve"/>
      <point x="423" y="0" type="line"/>
      <point x="381" y="0" type="line"/>
      <point x="337" y="195" type="line"/>
      <point x="129" y="195" type="line"/>
      <point x="84" y="0" type="line"/>
      <point x="44" y="0" type="line"/>
      <point x="206" y="679" type="line"/>
      <point x="169" y="690"/>
      <point x="144" y="724"/>
      <point x="144" y="765" type="curve" smooth="yes"/>
      <point x="144" y="815"/>
      <point x="182" y="854"/>
      <point x="233" y="854" type="curve" smooth="yes"/>
      <point x="284" y="854"/>
      <point x="322" y="815"/>
      <point x="322" y="765" type="curve" smooth="yes"/>
      <point x="322" y="725"/>
      <point x="298" y="692"/>
    </contour>
    <contour>
      <point x="233" y="702" type="curve" smooth="yes"/>
      <point x="269" y="702"/>
      <point x="295" y="729"/>
      <point x="295" y="765" type="curve" smooth="yes"/>
      <point x="295" y="800"/>
      <point x="269" y="827"/>
      <point x="233" y="827" type="curve" smooth="yes"/>
      <point x="197" y="827"/>
      <point x="171" y="800"/>
      <point x="171" y="765" type="curve" smooth="yes"/>
      <point x="171" y="729"/>
      <point x="197" y="702"/>
    </contour>
    <contour>
      <point x="328" y="233" type="line"/>
      <point x="233" y="649" type="line"/>
      <point x="137" y="233" type="line"/>
    </contour>
  </outline>
</glyph>
<glyph name="AE" format="1">
  <advance width="659"/>
  <unicode hex="00C6"/>
  <outline>
    <contour>
      <point x="145" y="195" type="line"/>
      <point x="60" y="0" type="line"/>
      <point x="19" y="0" type="line"/>
      <point x="330" y="700" type="line"/>
      <point x="613" y="700" type="line"/>
      <point x="613" y="661" type="line"/>
      <point x="381" y="661" type="line"/>
      <point x="381" y="394" type="line"/>
      <point x="531" y="394" type="line"/>
      <point x="531" y="354" type="line"/>
      <point x="381" y="354" type="line"/>
      <point x="381" y="39" type="line"/>
      <point x="625" y="39" type="line"/>
      <point x="625" y="0" type="line"/>
      <point x="341" y="0" type="line"/>
      <point x="341" y="195" type="line"/>
    </contour>
    <contour>
      <point x="341" y="234" type="line"/>
      <point x="341" y="643" type="line"/>
      <point x="162" y="234" type="line"/>
    </contour>
  </outline>
</glyph>
<glyph name="Ccedilla" format="1">
  <advance width="434"/>
  <unicode hex="00C7"/>
  <outline>
    <contour>
      <point x="211" y="-7" type="line"/>
      <point x="111" y="11"/>
      <point x="53" y="130"/>
      <point x="53" y="349" type="curve" smooth="yes"/>
      <point x="53" y="589"/>
      <point x="125" y="710"/>
      <point x="238" y="710" type="curve" smooth="yes"/>
      <point x="336" y="710"/>
      <point x="370" y="623"/>
      <point x="387" y="569" type="curve"/>
      <point x="350" y="553" type="line"/>
      <point x="332" y="607"/>
      <point x="304" y="672"/>
      <point x="238" y="672" type="curve" smooth="yes"/>
      <point x="149" y="672"/>
      <point x="94" y="559"/>
      <point x="94" y="351" type="curve" smooth="yes"/>
      <point x="94" y="143"/>
      <point x="148" y="28"/>
      <point x="240" y="28" type="curve" smooth="yes"/>
      <point x="308" y="28"/>
      <point x="336" y="96"/>
      <point x="354" y="147" type="curve"/>
      <point x="391" y="131" type="line"/>
      <point x="377" y="89"/>
      <point x="340" y="-10"/>
      <point x="240" y="-10" type="curve" smooth="yes"/>
      <point x="239" y="-10"/>
      <point x="238" y="-10"/>
      <point x="237" y="-10" type="curve"/>
      <point x="220" y="-54" type="line"/>
      <point x="227" y="-50"/>
      <point x="241" y="-45"/>
      <point x="257" y="-45" type="curve" smooth="yes"/>
      <point x="291" y="-45"/>
      <point x="318" y="-64"/>
      <point x="318" y="-110" type="curve" smooth="yes"/>
      <point x="318" y="-164"/>
      <point x="279" y="-189"/>
      <point x="236" y="-189" type="curve" smooth="yes"/>
      <point x="202" y="-189"/>
      <point x="173" y="-178"/>
      <point x="145" y="-156" type="curve"/>
      <point x="161" y="-133" type="line"/>
      <point x="185" y="-151"/>
      <point x="210" y="-160"/>
      <point x="231" y="-160" type="curve" smooth="yes"/>
      <point x="263" y="-160"/>
      <point x="285" y="-143"/>
      <point x="285" y="-110" type="curve" smooth="yes"/>
      <point x="285" y="-84"/>
      <point x="272" y="-71"/>
      <point x="249" y="-71" type="curve" smooth="yes"/>
      <point x="232" y="-71"/>
      <point x="218" y="-78"/>
      <point x="208" y="-87" type="curve"/>
      <point x="184" y="-77" type="line"/>
    </contour>
  </outline>
</glyph>
<glyph name="Eth" format="1">
  <advance width="475"/>
  <unicode hex="00D0"/>
  <outline>
    <contour>
      <point x="81" y="347" type="line"/>
      <point x="28" y="347" type="line"/>
      <point x="28" y="385" type="line"/>
      <point x="81" y="385" type="line"/>
      <point x="81" y="700" type="line"/>
      <point x="203" y="700" type="line" smooth="yes"/>
      <point x="351" y="700"/>
      <point x="421" y="592"/>
      <point x="421" y="353" type="curve" smooth="yes"/>
      <point x="421" y="103"/>
      <point x="345" y="0"/>
      <point x="197" y="0" type="curve" smooth="yes"/>
      <point x="81" y="0" type="line"/>
    </contour>
    <contour>
      <point x="122" y="385" type="line"/>
      <point x="227" y="385" type="line"/>
      <point x="227" y="347" type="line"/>
      <point x="122" y="347" type="line"/>
      <point x="122" y="39" type="line"/>
      <point x="201" y="39" type="line" smooth="yes"/>
      <point x="317" y="39"/>
      <point x="380" y="124"/>
      <point x="380" y="351" type="curve" smooth="yes"/>
      <point x="380" y="569"/>
      <point x="321" y="661"/>
      <point x="201" y="661" type="curve" smooth="yes"/>
      <point x="122" y="661" type="line"/>
    </contour>
  </outline>
</glyph>
<glyph name="Oslash" format="1">
  <advance width="487"/>
  <unicode hex="00D8"/>
  <outline>
    <contour>
      <point x="369" y="643" type="line"/>
      <point x="411" y="585"/>
      <point x="434" y="488"/>
      <point x="434" y="351" type="curve" smooth="yes"/>
      <point x="434" y="111"/>
      <point x="363" y="-10"/>
      <point x="243" y="-10" type="curve" smooth="yes"/>
      <point x="203" y="-10"/>
      <point x="169" y="3"/>
      <point x="140" y="30" type="curve"/>
      <point x="111" y="-50" type="line"/>
      <point x="75" y="-50" type="line"/>
      <point x="115" y="59" type="line"/>
      <point x="75" y="119"/>
      <point x="53" y="215"/>
      <point x="53" y="349" type="curve" smooth="yes"/>
      <point x="53" y="589"/>
      <point x="123" y="710"/>
      <point x="243" y="710" type="curve" smooth="yes"/>
      <point x="282" y="710"/>
      <point x="316" y="697"/>
      <point x="344" y="672" type="curve"/>
      <point x="373" y="750" type="line"/>
      <point x="409" y="750" type="line"/>
    </contour>
    <contour>
      <point x="134" y="107" type="curve"/>
      <point x="329" y="629" type="line"/>
      <point x="306" y="658"/>
      <point x="277" y="672"/>
      <point x="243" y="672" type="curve" smooth="yes"/>
      <point x="147" y="672"/>
      <point x="94" y="559"/>
      <point x="94" y="351" type="curve" smooth="yes"/>
      <point x="94" y="244"/>
      <point x="108" y="162"/>
    </contour>
    <contour>
      <point x="350" y="596" type="curve"/>
      <point x="156" y="73" type="line"/>
      <point x="179" y="43"/>
      <point x="208" y="28"/>
      <point x="243" y="28" type="curve" smooth="yes"/>
      <point x="339" y="28"/>
      <point x="393" y="141"/>
      <point x="393" y="349" type="curve" smooth="yes"/>
      <point x="393" y="458"/>
      <point x="378" y="541"/>
    </contour>
  </outline>
</glyph>
<glyph name="Thorn" format="1">
  <advance width="420"/>
  <unicode hex="00DE"/>
  <outline>
    <contour>
      <point x="71" y="0" type="line"/>
      <point x="71" y="700" type="line"/>
      <point x="112" y="700" type="line"/>
      <point x="112" y="552" type="line"/>
      <point x="203" y="552" type="line" smooth="yes"/>
      <point x="311" y="552"/>
      <point x="385" y="500"/>
      <point x="385" y="364" type="curve" smooth="yes"/>
      <point x="385" y="226"/>
      <point x="307" y="168"/>
      <point x="196" y="168" type="curve" smooth="yes"/>
      <point x="112" y="168" type="line"/>
      <point x="112" y="0" type="line"/>
    </contour>
    <contour>
      <point x="112" y="207" type="line"/>
      <point x="198" y="207" type="line" smooth="yes"/>
      <point x="292" y="207"/>
      <point x="344" y="254"/>
      <point x="344" y="362" type="curve" smooth="yes"/>
      <point x="344" y="469"/>
      <point x="291" y="513"/>
      <point x="202" y="513" type="curve" smooth="yes"/>
      <point x="112" y="513" type="line"/>
    </contour>
  </outline>
</glyph>
<glyph name="germandbls" format="1">
  <advance width="424"/>
  <unicode hex="00DF"/>
  <outline>
    <contour>
      <point x="64" y="-190" type="line"/>
      <point x="64" y="539" type="line" smooth="yes"/>
      <point x="64" y="663"/>
      <point x="114" y="725"/>
      <point x="201" y="725" type="curve" smooth="yes"/>
      <point x="291" y="725"/>
      <point x="340" y="659"/>
      <point x="340" y="557" type="curve" smooth="yes"/>
      <point x="340" y="463"/>
      <point x="304" y="418"/>
      <point x="253" y="403" type="curve"/>
      <point x="301" y="398"/>
      <point x="379" y="360"/>
      <point x="379" y="220" type="curve" smooth="yes"/>
      <point x="379" y="64"/>
      <point x="312" y="0"/>
      <point x="194" y="0" type="curve" smooth="yes"/>
      <point x="183" y="0" type="line"/>
      <point x="183" y="37" type="line"/>
      <point x="196" y="37" type="line" smooth="yes"/>
      <point x="293" y="37"/>
      <point x="339" y="92"/>
      <point x="339" y="216" type="curve" smooth="yes"/>
      <point x="339" y="338"/>
      <point x="283" y="381"/>
      <point x="197" y="381" type="curve" smooth="yes"/>
      <point x="183" y="381" type="line"/>
      <point x="183" y="419" type="line"/>
      <point x="184" y="419"/>
      <point x="196" y="419"/>
      <point x="197" y="419" type="curve" smooth="yes"/>
      <point x="263" y="419"/>
      <point x="300" y="462"/>
      <point x="300" y="557" type="curve" smooth="yes"/>
      <point x="300" y="638"/>
      <point x="265" y="687"/>
      <point x="200" y="687" type="curve" smooth="yes"/>
      <point x="139" y="687"/>
      <point x="104" y="639"/>
      <point x="104" y="543" type="curve" smooth="yes"/>
      <point x="104" y="-166" type="line"/>
    </contour>
  </outline>
</glyph>
<glyph name="ae" format="1">
  <advance width="654"/>
  <unicode hex="00E6"/>
  <outline>
    <contour>
      <point x="327" y="85" type="curve"/>
      <point x="304" y="53"/>
      <point x="251" y="-10"/>
      <point x="175" y="-10" type="curve" smooth="yes"/>
      <point x="99" y="-10"/>
      <point x="41" y="37"/>
      <point x="41" y="159" type="curve" smooth="yes"/>
      <point x="41" y="276"/>
      <point x="101" y="327"/>
      <point x="185" y="327" type="curve" smooth="yes"/>
      <point x="232" y="327"/>
      <point x="271" y="312"/>
      <point x="296" y="295" type="curve"/>
      <point x="296" y="390" type="line" smooth="yes"/>
      <point x="296" y="471"/>
      <point x="267" y="498"/>
      <point x="209" y="498" type="curve" smooth="yes"/>
      <point x="153" y="498"/>
      <point x="108" y="468"/>
      <point x="90" y="454" type="curve"/>
      <point x="71" y="485" type="line"/>
      <point x="87" y="498"/>
      <point x="141" y="535"/>
      <point x="207" y="535" type="curve" smooth="yes"/>
      <point x="283" y="535"/>
      <point x="320" y="506"/>
      <point x="329" y="430" type="curve"/>
      <point x="355" y="497"/>
      <point x="397" y="535"/>
      <point x="455" y="535" type="curve" smooth="yes"/>
      <point x="555" y="535"/>
      <point x="606" y="430"/>
      <point x="606" y="269" type="curve" smooth="yes"/>
      <point x="606" y="261"/>
      <point x="606" y="255"/>
      <point x="606" y="250" type="curve"/>
      <point x="334" y="250" type="line"/>
      <point x="334" y="250"/>
      <point x="334" y="248"/>
      <point x="334" y="247" type="curve" smooth="yes"/>
      <point x="338" y="114"/>
      <point x="380" y="27"/>
      <point x="453" y="27" type="curve" smooth="yes"/>
      <point x="515" y="27"/>
      <point x="553" y="77"/>
      <point x="567" y="98" type="curve"/>
      <point x="592" y="72" type="line"/>
      <point x="573" y="45"/>
      <point x="528" y="-10"/>
      <point x="451" y="-10" type="curve" smooth="yes"/>
      <point x="398" y="-10"/>
      <point x="354" y="23"/>
    </contour>
    <contour>
      <point x="335" y="286" type="curve"/>
      <point x="567" y="286" type="line"/>
      <point x="567" y="286"/>
      <point x="567" y="291"/>
      <point x="567" y="292" type="curve" smooth="yes"/>
      <point x="564" y="412"/>
      <point x="528" y="498"/>
      <point x="454" y="498" type="curve" smooth="yes"/>
      <point x="386" y="498"/>
      <point x="339" y="422"/>
    </contour>
    <contour>
      <point x="296" y="259" type="curve"/>
      <point x="256" y="284"/>
      <point x="225" y="291"/>
      <point x="187" y="291" type="curve" smooth="yes"/>
      <point x="121" y="291"/>
      <point x="81" y="248"/>
      <point x="81" y="159" type="curve" smooth="yes"/>
      <point x="81" y="69"/>
      <point x="119" y="26"/>
      <point x="184" y="26" type="curve" smooth="yes"/>
      <point x="238" y="26"/>
      <point x="283" y="68"/>
      <point x="314" y="118" type="curve"/>
      <point x="302" y="157"/>
      <point x="296" y="204"/>
    </contour>
  </outline>
</glyph>
<glyph name="ccedilla" format="1">
  <advance width="373"/>
  <unicode hex="00E7"/>
  <outline>
    <contour>
      <point x="180" y="-7" type="line"/>
      <point x="96" y="12"/>
      <point x="46" y="106"/>
      <point x="46" y="261" type="curve" smooth="yes"/>
      <point x="46" y="434"/>
      <point x="109" y="535"/>
      <point x="213" y="535" type="curve" smooth="yes"/>
      <point x="294" y="535"/>
      <point x="328" y="458"/>
      <point x="334" y="437" type="curve"/>
      <point x="302" y="418" type="line"/>
      <point x="293" y="443"/>
      <point x="265" y="498"/>
      <point x="213" y="498" type="curve" smooth="yes"/>
      <point x="128" y="498"/>
      <point x="86" y="406"/>
      <point x="86" y="263" type="curve" smooth="yes"/>
      <point x="86" y="120"/>
      <point x="127" y="27"/>
      <point x="212" y="27" type="curve" smooth="yes"/>
      <point x="264" y="27"/>
      <point x="293" y="83"/>
      <point x="304" y="106" type="curve"/>
      <point x="333" y="86" type="line"/>
      <point x="323" y="62"/>
      <point x="284" y="-10"/>
      <point x="212" y="-10" type="curve" smooth="yes"/>
      <point x="210" y="-10"/>
      <point x="208" y="-10"/>
      <point x="206" y="-10" type="curve"/>
      <point x="189" y="-54" type="line"/>
      <point x="196" y="-50"/>
      <point x="210" y="-45"/>
      <point x="226" y="-45" type="curve" smooth="yes"/>
      <point x="260" y="-45"/>
      <point x="287" y="-64"/>
      <point x="287" y="-110" type="curve" smooth="yes"/>
      <point x="287" y="-164"/>
      <point x="248" y="-189"/>
      <point x="205" y="-189" type="curve" smooth="yes"/>
      <point x="171" y="-189"/>
      <point x="142" y="-178"/>
      <point x="114" y="-156" type="curve"/>
      <point x="130" y="-133" type="line"/>
      <point x="154" y="-151"/>
      <point x="179" y="-160"/>
      <point x="200" y="-160" type="curve" smooth="yes"/>
      <point x="232" y="-160"/>
      <point x="254" y="-143"/>
      <point x="254" y="-110" type="curve" smooth="yes"/>
      <point x="254" y="-84"/>
      <point x="241" y="-71"/>
      <point x="218" y="-71" type="curve" smooth="yes"/>
      <point x="201" y="-71"/>
      <point x="187" y="-78"/>
      <point x="177" y="-87" type="curve"/>
      <point x="153" y="-77" type="line"/>
    </contour>
  </outline>
</glyph>
<glyph name="eth" format="1">
  <advance width="434"/>
  <unicode hex="00F0"/>
  <outline>
    <contour>
      <point x="258" y="606" type="curve"/>
      <point x="205" y="546" type="line"/>
      <point x="179" y="570" type="line"/>
      <point x="231" y="629" type="line"/>
      <point x="198" y="654"/>
      <point x="164" y="667"/>
      <point x="136" y="674" type="curve"/>
      <point x="136" y="711" type="line"/>
      <point x="182" y="702"/>
      <point x="222" y="683"/>
      <point x="255" y="656" type="curve"/>
      <point x="297" y="703" type="line"/>
      <point x="323" y="679" type="line"/>
      <point x="282" y="632" type="line"/>
      <point x="356" y="556"/>
      <point x="392" y="432"/>
      <point x="392" y="283" type="curve" smooth="yes"/>
      <point x="392" y="103"/>
      <point x="337" y="-10"/>
      <point x="218" y="-10" type="curve" smooth="yes"/>
      <point x="113" y="-10"/>
      <point x="46" y="91"/>
      <point x="46" y="236" type="curve" smooth="yes"/>
      <point x="46" y="385"/>
      <point x="113" y="483"/>
      <point x="210" y="483" type="curve" smooth="yes"/>
      <point x="281" y="483"/>
      <point x="327" y="446"/>
      <point x="354" y="383" type="curve"/>
      <point x="339" y="494"/>
      <point x="301" y="563"/>
    </contour>
    <contour>
      <point x="218" y="27" type="curve" smooth="yes"/>
      <point x="311" y="27"/>
      <point x="351" y="126"/>
      <point x="351" y="248" type="curve" smooth="yes"/>
      <point x="351" y="267"/>
      <point x="350" y="286"/>
      <point x="349" y="303" type="curve"/>
      <point x="333" y="396"/>
      <point x="285" y="446"/>
      <point x="215" y="446" type="curve" smooth="yes"/>
      <point x="134" y="446"/>
      <point x="86" y="364"/>
      <point x="86" y="236" type="curve" smooth="yes"/>
      <point x="86" y="111"/>
      <point x="136" y="27"/>
    </contour>
  </outline>
</glyph>
<glyph name="oslash" format="1">
  <advance width="426"/>
  <unicode hex="00F8"/>
  <outline>
    <contour>
      <point x="104" y="41" type="line"/>
      <point x="67" y="86"/>
      <point x="46" y="161"/>
      <point x="46" y="261" type="curve" smooth="yes"/>
      <point x="46" y="434"/>
      <point x="110" y="535"/>
      <point x="213" y="535" type="curve" smooth="yes"/>
      <point x="245" y="535"/>
      <point x="273" y="526"/>
      <point x="297" y="507" type="curve"/>
      <point x="325" y="575" type="line"/>
      <point x="361" y="575" type="line"/>
      <point x="323" y="481" type="line"/>
      <point x="359" y="436"/>
      <point x="380" y="361"/>
      <point x="380" y="263" type="curve" smooth="yes"/>
      <point x="380" y="90"/>
      <point x="315" y="-10"/>
      <point x="212" y="-10" type="curve" smooth="yes"/>
      <point x="181" y="-10"/>
      <point x="153" y="-1"/>
      <point x="130" y="16" type="curve"/>
      <point x="118" y="-13"/>
      <point x="103" y="-50"/>
      <point x="103" y="-50" type="curve"/>
      <point x="67" y="-50" type="line"/>
    </contour>
    <contour>
      <point x="121" y="81" type="curve"/>
      <point x="282" y="472" type="line"/>
      <point x="263" y="490"/>
      <point x="240" y="500"/>
      <point x="213" y="500" type="curve" smooth="yes"/>
      <point x="128" y="500"/>
      <point x="85" y="408"/>
      <point x="85" y="263" type="curve" smooth="yes"/>
      <point x="85" y="186"/>
      <point x="97" y="123"/>
    </contour>
    <contour>
      <point x="306" y="441" type="curve"/>
      <point x="144" y="51" type="line"/>
      <point x="163" y="34"/>
      <point x="185" y="25"/>
      <point x="212" y="25" type="curve" smooth="yes"/>
      <point x="297" y="25"/>
      <point x="341" y="116"/>
      <point x="341" y="261" type="curve" smooth="yes"/>
      <point x="341" y="337"/>
      <point x="329" y="399"/>
    </contour>
  </outline>
</glyph>
<glyph name="thorn" format="1">
  <advance width="417"/>
  <unicode hex="00FE"/>
  <outline>
    <contour>
      <point x="66" y="-190" type="line"/>
      <point x="66" y="705" type="line"/>
      <point x="106" y="729" type="line"/>
      <point x="106" y="475" type="line"/>
      <point x="126" y="500"/>
      <point x="170" y="535"/>
      <point x="227" y="535" type="curve" smooth="yes"/>
      <point x="317" y="535"/>
      <point x="371" y="453"/>
      <point x="371" y="265" type="curve" smooth="yes"/>
      <point x="371" y="75"/>
      <point x="314" y="-10"/>
      <point x="223" y="-10" type="curve" smooth="yes"/>
      <point x="166" y="-10"/>
      <point x="126" y="24"/>
      <point x="106" y="48" type="curve"/>
      <point x="106" y="-166" type="line"/>
    </contour>
    <contour>
      <point x="221" y="27" type="curve" smooth="yes"/>
      <point x="292" y="27"/>
      <point x="331" y="104"/>
      <point x="331" y="265" type="curve" smooth="yes"/>
      <point x="331" y="431"/>
      <point x="289" y="498"/>
      <point x="218" y="498" type="curve" smooth="yes"/>
      <point x="171" y="498"/>
      <point x="131" y="467"/>
      <point x="106" y="432" type="curve"/>
      <point x="106" y="94" type="line"/>
      <point x="131" y="57"/>
      <point x="171" y="27"/>
    </contour>
  </outline>
</glyph>
<glyph name="Lslash" format="1">
  <advance width="375"/>
  <unicode hex="0141"/>
  <outline>
    <contour>
      <point x="81" y="0" type="line"/>
      <point x="81" y="268" type="line"/>
      <point x="38" y="230" type="line"/>
      <point x="38" y="280" type="line"/>
      <point x="81" y="318" type="line"/>
      <point x="81" y="700" type="line"/>
      <point x="121" y="700" type="line"/>
      <point x="121" y="350" type="line"/>
      <point x="228" y="444" type="line"/>
      <point x="228" y="395" type="line"/>
      <point x="121" y="301" type="line"/>
      <point x="121" y="39" type="line"/>
      <point x="345" y="39" type="line"/>
      <point x="345" y="0" type="line"/>
    </contour>
  </outline>
</glyph>
<glyph name="lslash" format="1">
  <advance width="211"/>
  <unicode hex="0142"/>
  <outline>
    <contour>
      <point x="85" y="0" type="line"/>
      <point x="85" y="282" type="line"/>
      <point x="39" y="240" type="line"/>
      <point x="39" y="291" type="line"/>
      <point x="85" y="333" type="line"/>
      <point x="85" y="705" type="line"/>
      <point x="125" y="729" type="line"/>
      <point x="125" y="366" type="line"/>
      <point x="172" y="409" type="line"/>
      <point x="172" y="358" type="line"/>
      <point x="125" y="315" type="line"/>
      <point x="125" y="0" type="line"/>
    </contour>
  </outline>
</glyph>
<glyph name="OE" format="1">
  <advance width="714"/>
  <unicode hex="0152"/>
  <outline>
    <contour>
      <point x="397" y="572" type="curve"/>
      <point x="397" y="700" type="line"/>
      <point x="668" y="700" type="line"/>
      <point x="668" y="661" type="line"/>
      <point x="437" y="661" type="line"/>
      <point x="437" y="394" type="line"/>
      <point x="586" y="394" type="line"/>
      <point x="586" y="354" type="line"/>
      <point x="437" y="354" type="line"/>
      <point x="437" y="39" type="line"/>
      <point x="680" y="39" type="line"/>
      <point x="680" y="0" type="line"/>
      <point x="397" y="0" type="line"/>
      <point x="397" y="132" type="line"/>
      <point x="368" y="38"/>
      <point x="318" y="-10"/>
      <point x="243" y="-10" type="curve" smooth="yes"/>
      <point x="123" y="-10"/>
      <point x="53" y="109"/>
      <point x="53" y="349" type="curve" smooth="yes"/>
      <point x="53" y="589"/>
      <point x="123" y="710"/>
      <point x="243" y="710" type="curve" smooth="yes"/>
      <point x="317" y="710"/>
      <point x="367" y="664"/>
    </contour>
    <contour>
      <point x="243" y="28" type="curve" smooth="yes"/>
      <point x="339" y="28"/>
      <point x="393" y="141"/>
      <point x="393" y="349" type="curve" smooth="yes"/>
      <point x="393" y="557"/>
      <point x="339" y="672"/>
      <point x="243" y="672" type="curve" smooth="yes"/>
      <point x="147" y="672"/>
      <point x="94" y="559"/>
      <point x="94" y="351" type="curve" smooth="yes"/>
      <point x="94" y="143"/>
      <point x="147" y="28"/>
    </contour>
  </outline>
</glyph>
<glyph name="oe" format="1">
  <advance width="699"/>
  <unicode hex="0153"/>
  <outline>
    <contour>
      <point x="360" y="128" type="curve"/>
      <point x="334" y="39"/>
      <point x="284" y="-10"/>
      <point x="212" y="-10" type="curve" smooth="yes"/>
      <point x="109" y="-10"/>
      <point x="46" y="88"/>
      <point x="46" y="261" type="curve" smooth="yes"/>
      <point x="46" y="434"/>
      <point x="110" y="535"/>
      <point x="213" y="535" type="curve" smooth="yes"/>
      <point x="286" y="535"/>
      <point x="335" y="486"/>
      <point x="360" y="394" type="curve"/>
      <point x="384" y="484"/>
      <point x="431" y="535"/>
      <point x="500" y="535" type="curve" smooth="yes"/>
      <point x="600" y="535"/>
      <point x="651" y="430"/>
      <point x="651" y="269" type="curve" smooth="yes"/>
      <point x="651" y="261"/>
      <point x="651" y="255"/>
      <point x="651" y="250" type="curve"/>
      <point x="379" y="250" type="line"/>
      <point x="379" y="250"/>
      <point x="379" y="248"/>
      <point x="379" y="247" type="curve" smooth="yes"/>
      <point x="383" y="114"/>
      <point x="425" y="27"/>
      <point x="498" y="27" type="curve" smooth="yes"/>
      <point x="560" y="27"/>
      <point x="598" y="77"/>
      <point x="612" y="98" type="curve"/>
      <point x="637" y="72" type="line"/>
      <point x="618" y="45"/>
      <point x="573" y="-10"/>
      <point x="496" y="-10" type="curve" smooth="yes"/>
      <point x="432" y="-10"/>
      <point x="384" y="38"/>
    </contour>
    <contour>
      <point x="380" y="286" type="curve"/>
      <point x="612" y="286" type="line"/>
      <point x="612" y="286"/>
      <point x="612" y="291"/>
      <point x="612" y="292" type="curve" smooth="yes"/>
      <point x="609" y="412"/>
      <point x="573" y="498"/>
      <point x="499" y="498" type="curve" smooth="yes"/>
      <point x="431" y="498"/>
      <point x="384" y="422"/>
    </contour>
    <contour>
      <point x="212" y="27" type="curve" smooth="yes"/>
      <point x="297" y="27"/>
      <point x="340" y="118"/>
      <point x="340" y="261" type="curve" smooth="yes"/>
      <point x="340" y="404"/>
      <point x="298" y="498"/>
      <point x="213" y="498" type="curve" smooth="yes"/>
      <point x="128" y="498"/>
      <point x="86" y="406"/>
      <point x="86" y="263" type="curve" smooth="yes"/>
      <point x="86" y="120"/>
      <point x="127" y="27"/>
    </contour>
  </outline>
</glyph>
<glyph name="florin" format="1">
  <advance width="273"/>
  <unicode hex="0192"/>
  <outline>
    <contour>
      <point x="93" y="-189" type="line"/>
      <point x="93" y="484" type="line"/>
      <point x="35" y="484" type="line"/>
      <point x="35" y="519" type="line"/>
      <point x="93" y="519" type="line"/>
      <point x="93" y="600" type="line" smooth="yes"/>
      <point x="93" y="678"/>
      <point x="132" y="709"/>
      <point x="188" y="709" type="curve" smooth="yes"/>
      <point x="211" y="709"/>
      <point x="230" y="706"/>
      <point x="244" y="702" type="curve"/>
      <point x="243" y="665" type="line"/>
      <point x="230" y="670"/>
      <point x="211" y="673"/>
      <point x="192" y="673" type="curve" smooth="yes"/>
      <point x="156" y="673"/>
      <point x="132" y="654"/>
      <point x="132" y="602" type="curve" smooth="yes"/>
      <point x="132" y="519" type="line"/>
      <point x="228" y="519" type="line"/>
      <point x="228" y="484" type="line"/>
      <point x="132" y="484" type="line"/>
      <point x="132" y="-167" type="line"/>
    </contour>
  </outline>
</glyph>
<glyph name="circumflex" format="1">
  <advance width="390"/>
  <unicode hex="02C6"/>
  <outline>
    <contour>
      <point x="72" y="597" type="line"/>
      <point x="176" y="752" type="line"/>
      <point x="214" y="752" type="line"/>
      <point x="318" y="597" type="line"/>
      <point x="283" y="597" type="line"/>
      <point x="194" y="716" type="line"/>
      <point x="106" y="597" type="line"/>
    </contour>
  </outline>
</glyph>
<glyph name="caron" format="1">
  <advance width="390"/>
  <unicode hex="02C7"/>
  <outline>
    <contour>
      <point x="176" y="597" type="line"/>
      <point x="72" y="752" type="line"/>
      <point x="107" y="752" type="line"/>
      <point x="195" y="633" type="line"/>
      <point x="285" y="752" type="line"/>
      <point x="318" y="752" type="line"/>
      <point x="214" y="597" type="line"/>
    </contour>
  </outline>
</glyph>
<glyph name="breve" format="1">
  <advance width="390"/>
  <unicode hex="02D8"/>
  <outline>
    <contour>
      <point x="191" y="597" type="curve" smooth="yes"/>
      <point x="115" y="597"/>
      <point x="70" y="650"/>
      <point x="66" y="735" type="curve"/>
      <point x="99" y="735" type="line"/>
      <point x="103" y="666"/>
      <point x="137" y="627"/>
      <point x="191" y="627" type="curve" smooth="yes"/>
      <point x="245" y="627"/>
      <point x="279" y="666"/>
      <point x="283" y="735" type="curve"/>
      <point x="316" y="735" type="line"/>
      <point x="312" y="650"/>
      <point x="267" y="597"/>
    </contour>
  </outline>
</glyph>
<glyph name="dotaccent" format="1">
  <advance width="390"/>
  <unicode hex="02D9"/>
  <outline>
    <contour>
      <point x="195" y="692" type="curve" smooth="yes"/>
      <point x="216" y="692"/>
      <point x="233" y="674"/>
      <point x="233" y="652" type="curve" smooth="yes"/>
      <point x="233" y="630"/>
      <point x="216" y="613"/>
      <point x="195" y="613" type="curve" smooth="yes"/>
      <point x="174" y="613"/>
      <point x="157" y="630"/>
      <point x="157" y="652" type="curve" smooth="yes"/>
      <point x="157" y="674"/>
      <point x="174" y="692"/>
    </contour>
  </outline>
</glyph>
<glyph name="ring" format="1">
  <advance width="390"/>
  <unicode hex="02DA"/>
  <outline>
    <contour>
      <point x="195" y="605" type="curve" smooth="yes"/>
      <point x="144" y="605"/>
      <point x="106" y="645"/>
      <point x="106" y="695" type="curve" smooth="yes"/>
      <point x="106" y="745"/>
      <point x="144" y="784"/>
      <point x="195" y="784" type="curve" smooth="yes"/>
      <point x="246" y="784"/>
      <point x="284" y="745"/>
      <point x="284" y="695" type="curve" smooth="yes"/>
      <point x="284" y="645"/>
      <point x="246" y="605"/>
    </contour>
    <contour>
      <point x="195" y="632" type="curve" smooth="yes"/>
      <point x="231" y="632"/>
      <point x="257" y="659"/>
      <point x="257" y="695" type="curve" smooth="yes"/>
      <point x="257" y="730"/>
      <point x="231" y="757"/>
      <point x="195" y="757" type="curve" smooth="yes"/>
      <point x="159" y="757"/>
      <point x="133" y="730"/>
      <point x="133" y="695" type="curve" smooth="yes"/>
      <point x="133" y="659"/>
      <point x="159" y="632"/>
    </contour>
  </outline>
</glyph>
<glyph name="ogonek" format="1">
  <advance width="390"/>
  <unicode hex="02DB"/>
  <outline>
    <contour>
      <point x="123" y="-118" type="curve" smooth="yes"/>
      <point x="123" y="-79"/>
      <point x="147" y="-32"/>
      <point x="189" y="1" type="curve"/>
      <point x="218" y="1" type="line"/>
      <point x="176" y="-40"/>
      <point x="159" y="-81"/>
      <point x="159" y="-111" type="curve" smooth="yes"/>
      <point x="159" y="-141"/>
      <point x="177" y="-161"/>
      <point x="206" y="-161" type="curve" smooth="yes"/>
      <point x="232" y="-161"/>
      <point x="257" y="-151"/>
      <point x="283" y="-133" type="curve"/>
      <point x="297" y="-156" type="line"/>
      <point x="274" y="-173"/>
      <point x="243" y="-193"/>
      <point x="200" y="-193" type="curve" smooth="yes"/>
      <point x="151" y="-193"/>
      <point x="123" y="-163"/>
    </contour>
  </outline>
</glyph>
<glyph name="tilde" format="1">
  <advance width="386"/>
  <unicode hex="02DC"/>
  <outline>
    <contour>
      <point x="252" y="601" type="curve" smooth="yes"/>
      <point x="201" y="601"/>
      <point x="166" y="673"/>
      <point x="132" y="673" type="curve" smooth="yes"/>
      <point x="111" y="673"/>
      <point x="96" y="653"/>
      <point x="92" y="604" type="curve"/>
      <point x="60" y="604" type="line"/>
      <point x="61" y="672"/>
      <point x="93" y="707"/>
      <point x="131" y="707" type="curve" smooth="yes"/>
      <point x="182" y="707"/>
      <point x="219" y="635"/>
      <point x="253" y="635" type="curve" smooth="yes"/>
      <point x="275" y="635"/>
      <point x="290" y="658"/>
      <point x="293" y="705" type="curve"/>
      <point x="325" y="705" type="line"/>
      <point x="323" y="636"/>
      <point x="293" y="601"/>
    </contour>
  </outline>
</glyph>
<glyph name="hungarumlaut" format="1">
  <advance width="390"/>
  <unicode hex="02DD"/>
  <outline>
    <contour>
      <point x="197" y="597" type="line"/>
      <point x="282" y="752" type="line"/>
      <point x="334" y="752" type="line"/>
      <point x="226" y="597" type="line"/>
    </contour>
    <contour>
      <point x="67" y="597" type="line"/>
      <point x="152" y="752" type="line"/>
      <point x="205" y="752" type="line"/>
      <point x="96" y="597" type="line"/>
    </contour>
  </outline>
</glyph>
<glyph name="endash" format="1">
  <advance width="323"/>
  <unicode hex="2013"/>
  <outline>
    <contour>
      <point x="37" y="345" type="line"/>
      <point x="37" y="384" type="line"/>
      <point x="286" y="384" type="line"/>
      <point x="286" y="345" type="line"/>
    </contour>
  </outline>
</glyph>
<glyph name="emdash" format="1">
  <advance width="442"/>
  <unicode hex="2014"/>
  <outline>
    <contour>
      <point x="37" y="345" type="line"/>
      <point x="37" y="384" type="line"/>
      <point x="405" y="384" type="line"/>
      <point x="405" y="345" type="line"/>
    </contour>
  </outline>
</glyph>
<glyph name="quoteleft" format="1">
  <advance width="156"/>
  <unicode hex="2018"/>
  <unicode hex="02BB"/>
  <outline>
    <contour>
      <point x="43" y="528" type="line"/>
      <point x="82" y="700" type="line"/>
      <point x="108" y="700" type="line"/>
      <point x="92" y="528" type="line"/>
    </contour>
  </outline>
</glyph>
<glyph name="quoteright" format="1">
  <advance width="156"/>
  <unicode hex="2019"/>
  <unicode hex="02BC"/>
  <outline>
    <contour>
      <point x="49" y="528" type="line"/>
      <point x="64" y="700" type="line"/>
      <point x="113" y="700" type="line"/>
      <point x="74" y="528" type="line"/>
    </contour>
  </outline>
</glyph>
<glyph name="quotesinglbase" format="1">
  <advance width="156"/>
  <unicode hex="201A"/>
  <outline>
    <contour>
      <point x="44" y="-95" type="line"/>
      <point x="60" y="76" type="line"/>
      <point x="109" y="76" type="line"/>
      <point x="70" y="-95" type="line"/>
    </contour>
  </outline>
</glyph>
<glyph name="quotedblleft" format="1">
  <advance width="293"/>
  <unicode hex="201C"/>
  <outline>
    <contour>
      <point x="180" y="528" type="line"/>
      <point x="219" y="700" type="line"/>
      <point x="245" y="700" type="line"/>
      <point x="229" y="528" type="line"/>
    </contour>
    <contour>
      <point x="43" y="528" type="line"/>
      <point x="82" y="700" type="line"/>
      <point x="108" y="700" type="line"/>
      <point x="92" y="528" type="line"/>
    </contour>
  </outline>
</glyph>
<glyph name="quotedblright" format="1">
  <advance width="293"/>
  <unicode hex="201D"/>
  <outline>
    <contour>
      <point x="186" y="528" type="line"/>
      <point x="201" y="700" type="line"/>
      <point x="250" y="700" type="line"/>
      <point x="211" y="528" type="line"/>
    </contour>
    <contour>
      <point x="49" y="528" type="line"/>
      <point x="64" y="700" type="line"/>
      <point x="113" y="700" type="line"/>
      <point x="74" y="528" type="line"/>
    </contour>
  </outline>
</glyph>
<glyph name="quotedblbase" format="1">
  <advance width="313"/>
  <unicode hex="201E"/>
  <outline>
    <contour>
      <point x="201" y="-95" type="line"/>
      <point x="217" y="76" type="line"/>
      <point x="266" y="76" type="line"/>
      <point x="227" y="-95" type="line"/>
    </contour>
    <contour>
      <point x="44" y="-95" type="line"/>
      <point x="60" y="76" type="line"/>
      <point x="109" y="76" type="line"/>
      <point x="70" y="-95" type="line"/>
    </contour>
  </outline>
</glyph>
<glyph name="dagger" format="1">
  <advance width="391"/>
  <unicode hex="2020"/>
  <outline>
    <contour>
      <point x="177" y="-100" type="line"/>
      <point x="177" y="414" type="line"/>
      <point x="29" y="414" type="line"/>
      <point x="29" y="449" type="line"/>
      <point x="177" y="449" type="line"/>
      <point x="177" y="700" type="line"/>
      <point x="214" y="700" type="line"/>
      <point x="214" y="449" type="line"/>
      <point x="362" y="449" type="line"/>
      <point x="362" y="414" type="line"/>
      <point x="214" y="414" type="line"/>
      <point x="214" y="-100" type="line"/>
    </contour>
  </outline>
</glyph>
<glyph name="daggerdbl" format="1">
  <advance width="391"/>
  <unicode hex="2021"/>
  <outline>
    <contour>
      <point x="177" y="-100" type="line"/>
      <point x="177" y="151" type="line"/>
      <point x="30" y="151" type="line"/>
      <point x="30" y="186" type="line"/>
      <point x="177" y="186" type="line"/>
      <point x="177" y="414" type="line"/>
      <point x="30" y="414" type="line"/>
      <point x="30" y="449" type="line"/>
      <point x="177" y="449" type="line"/>
      <point x="177" y="700" type="line"/>
      <point x="214" y="700" type="line"/>
      <point x="214" y="449" type="line"/>
      <point x="361" y="449" type="line"/>
      <point x="361" y="414" type="line"/>
      <point x="214" y="414" type="line"/>
      <point x="214" y="186" type="line"/>
      <point x="361" y="186" type="line"/>
      <point x="361" y="151" type="line"/>
      <point x="214" y="151" type="line"/>
      <point x="214" y="-100" type="line"/>
    </contour>
  </outline>
</glyph>
<glyph name="ellipsis" format="1">
  <advance width="454"/>
  <unicode hex="2026"/>
  <outline>
    <contour>
      <point x="380" y="73" type="curve" smooth="yes"/>
      <point x="400" y="73"/>
      <point x="417" y="55"/>
      <point x="417" y="34" type="curve" smooth="yes"/>
      <point x="417" y="13"/>
      <point x="400" y="-4"/>
      <point x="380" y="-4" type="curve" smooth="yes"/>
      <point x="360" y="-4"/>
      <point x="343" y="13"/>
      <point x="343" y="34" type="curve" smooth="yes"/>
      <point x="343" y="55"/>
      <point x="360" y="73"/>
    </contour>
    <contour>
      <point x="227" y="73" type="curve" smooth="yes"/>
      <point x="247" y="73"/>
      <point x="264" y="55"/>
      <point x="264" y="34" type="curve" smooth="yes"/>
      <point x="264" y="13"/>
      <point x="247" y="-4"/>
      <point x="227" y="-4" type="curve" smooth="yes"/>
      <point x="207" y="-4"/>
      <point x="190" y="13"/>
      <point x="190" y="34" type="curve" smooth="yes"/>
      <point x="190" y="55"/>
      <point x="207" y="73"/>
    </contour>
    <contour>
      <point x="74" y="73" type="curve" smooth="yes"/>
      <point x="94" y="73"/>
      <point x="111" y="55"/>
      <point x="111" y="34" type="curve" smooth="yes"/>
      <point x="111" y="13"/>
      <point x="94" y="-4"/>
      <point x="74" y="-4" type="curve" smooth="yes"/>
      <point x="54" y="-4"/>
      <point x="37" y="13"/>
      <point x="37" y="34" type="curve" smooth="yes"/>
      <point x="37" y="55"/>
      <point x="54" y="73"/>
    </contour>
  </outline>
</glyph>
<glyph name="perthousand" format="1">
  <advance width="962"/>
  <unicode hex="2030"/>
  <outline>
    <contour>
      <point x="157" y="710" type="curve" smooth="yes"/>
      <point x="230" y="710"/>
      <point x="272" y="636"/>
      <point x="272" y="504" type="curve" smooth="yes"/>
      <point x="272" y="372"/>
      <point x="231" y="299"/>
      <point x="157" y="299" type="curve" smooth="yes"/>
      <point x="83" y="299"/>
      <point x="43" y="372"/>
      <point x="43" y="504" type="curve" smooth="yes"/>
      <point x="43" y="636"/>
      <point x="84" y="710"/>
    </contour>
    <contour>
      <point x="143" y="0" type="line"/>
      <point x="498" y="700" type="line"/>
      <point x="537" y="700" type="line"/>
      <point x="182" y="0" type="line"/>
    </contour>
    <contour>
      <point x="804" y="401" type="curve" smooth="yes"/>
      <point x="877" y="401"/>
      <point x="919" y="327"/>
      <point x="919" y="195" type="curve" smooth="yes"/>
      <point x="919" y="63"/>
      <point x="878" y="-10"/>
      <point x="804" y="-10" type="curve" smooth="yes"/>
      <point x="730" y="-10"/>
      <point x="690" y="63"/>
      <point x="690" y="195" type="curve" smooth="yes"/>
      <point x="690" y="327"/>
      <point x="731" y="401"/>
    </contour>
    <contour>
      <point x="519" y="401" type="curve" smooth="yes"/>
      <point x="592" y="401"/>
      <point x="634" y="327"/>
      <point x="634" y="195" type="curve" smooth="yes"/>
      <point x="634" y="63"/>
      <point x="593" y="-10"/>
      <point x="519" y="-10" type="curve" smooth="yes"/>
      <point x="445" y="-10"/>
      <point x="405" y="63"/>
      <point x="405" y="195" type="curve" smooth="yes"/>
      <point x="405" y="327"/>
      <point x="446" y="401"/>
    </contour>
    <contour>
      <point x="157" y="334" type="curve" smooth="yes"/>
      <point x="213" y="334"/>
      <point x="235" y="400"/>
      <point x="235" y="504" type="curve" smooth="yes"/>
      <point x="235" y="608"/>
      <point x="213" y="675"/>
      <point x="157" y="675" type="curve" smooth="yes"/>
      <point x="101" y="675"/>
      <point x="80" y="608"/>
      <point x="80" y="504" type="curve" smooth="yes"/>
      <point x="80" y="400"/>
      <point x="101" y="334"/>
    </contour>
    <contour>
      <point x="804" y="25" type="curve" smooth="yes"/>
      <point x="860" y="25"/>
      <point x="882" y="91"/>
      <point x="882" y="195" type="curve" smooth="yes"/>
      <point x="882" y="299"/>
      <point x="860" y="366"/>
      <point x="804" y="366" type="curve" smooth="yes"/>
      <point x="748" y="366"/>
      <point x="727" y="299"/>
      <point x="727" y="195" type="curve" smooth="yes"/>
      <point x="727" y="91"/>
      <point x="748" y="25"/>
    </contour>
    <contour>
      <point x="519" y="25" type="curve" smooth="yes"/>
      <point x="575" y="25"/>
      <point x="597" y="91"/>
      <point x="597" y="195" type="curve" smooth="yes"/>
      <point x="597" y="299"/>
      <point x="575" y="366"/>
      <point x="519" y="366" type="curve" smooth="yes"/>
      <point x="463" y="366"/>
      <point x="442" y="299"/>
      <point x="442" y="195" type="curve" smooth="yes"/>
      <point x="442" y="91"/>
      <point x="463" y="25"/>
    </contour>
  </outline>
</glyph>
<glyph name="guilsinglleft" format="1">
  <advance width="261"/>
  <unicode hex="2039"/>
  <outline>
    <contour>
      <point x="181" y="0" type="line"/>
      <point x="24" y="263" type="line"/>
      <point x="181" y="525" type="line"/>
      <point x="224" y="525" type="line"/>
      <point x="67" y="263" type="line"/>
      <point x="224" y="0" type="line"/>
    </contour>
  </outline>
</glyph>
<glyph name="guilsinglright" format="1">
  <advance width="261"/>
  <unicode hex="203A"/>
  <outline>
    <contour>
      <point x="80" y="525" type="line"/>
      <point x="237" y="262" type="line"/>
      <point x="80" y="0" type="line"/>
      <point x="37" y="0" type="line"/>
      <point x="194" y="262" type="line"/>
      <point x="37" y="525" type="line"/>
    </contour>
  </outline>
</glyph>
<glyph name="fraction" format="1">
  <advance width="345"/>
  <unicode hex="2044"/>
  <outline>
    <contour>
      <point x="-36" y="0" type="line"/>
      <point x="338" y="700" type="line"/>
      <point x="381" y="700" type="line"/>
      <point x="7" y="0" type="line"/>
    </contour>
  </outline>
</glyph>
<glyph name="Euro" format="1">
  <advance width="437"/>
  <unicode hex="20AC"/>
  <outline>
    <contour>
      <point x="93" y="402" type="line"/>
      <point x="92" y="385"/>
      <point x="92" y="368"/>
      <point x="92" y="350" type="curve" smooth="yes"/>
      <point x="92" y="334"/>
      <point x="92" y="319"/>
      <point x="93" y="305" type="curve"/>
      <point x="262" y="305" type="line"/>
      <point x="262" y="268" type="line"/>
      <point x="95" y="268" type="line"/>
      <point x="109" y="106"/>
      <point x="163" y="28"/>
      <point x="238" y="28" type="curve" smooth="yes"/>
      <point x="306" y="28"/>
      <point x="334" y="96"/>
      <point x="352" y="147" type="curve"/>
      <point x="389" y="131" type="line"/>
      <point x="375" y="89"/>
      <point x="338" y="-10"/>
      <point x="238" y="-10" type="curve" smooth="yes"/>
      <point x="120" y="-10"/>
      <point x="51" y="109"/>
      <point x="51" y="349" type="curve" smooth="yes"/>
      <point x="51" y="589"/>
      <point x="123" y="710"/>
      <point x="236" y="710" type="curve" smooth="yes"/>
      <point x="334" y="710"/>
      <point x="368" y="623"/>
      <point x="385" y="569" type="curve"/>
      <point x="348" y="553" type="line"/>
      <point x="330" y="607"/>
      <point x="302" y="672"/>
      <point x="236" y="672" type="curve" smooth="yes"/>
      <point x="163" y="672"/>
      <point x="110" y="596"/>
      <point x="96" y="439" type="curve"/>
      <point x="262" y="439" type="line"/>
      <point x="262" y="402" type="line"/>
    </contour>
  </outline>
</glyph>
<glyph name="uni2117" format="1">
  <advance width="605"/>
  <unicode hex="2117"/>
  <outline>
    <contour>
      <point x="302" y="-10" type="curve" smooth="yes"/>
      <point x="145" y="-10"/>
      <point x="45" y="141"/>
      <point x="45" y="350" type="curve" smooth="yes"/>
      <point x="45" y="560"/>
      <point x="145" y="711"/>
      <point x="302" y="711" type="curve" smooth="yes"/>
      <point x="460" y="711"/>
      <point x="560" y="560"/>
      <point x="560" y="350" type="curve" smooth="yes"/>
      <point x="560" y="141"/>
      <point x="460" y="-10"/>
    </contour>
    <contour>
      <point x="302" y="17" type="curve" smooth="yes"/>
      <point x="445" y="17"/>
      <point x="531" y="157"/>
      <point x="531" y="350" type="curve" smooth="yes"/>
      <point x="531" y="543"/>
      <point x="445" y="684"/>
      <point x="302" y="684" type="curve" smooth="yes"/>
      <point x="159" y="684"/>
      <point x="73" y="543"/>
      <point x="73" y="350" type="curve" smooth="yes"/>
      <point x="73" y="157"/>
      <point x="159" y="17"/>
    </contour>
    <contour>
      <point x="228" y="148" type="line"/>
      <point x="228" y="546" type="line"/>
      <point x="306" y="546" type="line" smooth="yes"/>
      <point x="368" y="546"/>
      <point x="413" y="516"/>
      <point x="413" y="438" type="curve" smooth="yes"/>
      <point x="413" y="360"/>
      <point x="367" y="326"/>
      <point x="302" y="326" type="curve" smooth="yes"/>
      <point x="257" y="326" type="line"/>
      <point x="257" y="148" type="line"/>
    </contour>
    <contour>
      <point x="257" y="354" type="line"/>
      <point x="302" y="354" type="line" smooth="yes"/>
      <point x="355" y="354"/>
      <point x="384" y="379"/>
      <point x="384" y="439" type="curve" smooth="yes"/>
      <point x="384" y="498"/>
      <point x="354" y="519"/>
      <point x="305" y="519" type="curve" smooth="yes"/>
      <point x="257" y="519" type="line"/>
    </contour>
  </outline>
</glyph>
<glyph name="trademark" format="1">
  <advance width="553"/>
  <unicode hex="2122"/>
  <outline>
    <contour>
      <point x="101" y="302" type="line"/>
      <point x="101" y="676" type="line"/>
      <point x="15" y="676" type="line"/>
      <point x="15" y="700" type="line"/>
      <point x="213" y="700" type="line"/>
      <point x="213" y="676" type="line"/>
      <point x="128" y="676" type="line"/>
      <point x="128" y="302" type="line"/>
    </contour>
    <contour>
      <point x="392" y="372" type="line"/>
      <point x="486" y="700" type="line"/>
      <point x="515" y="700" type="line"/>
      <point x="515" y="302" type="line"/>
      <point x="490" y="302" type="line"/>
      <point x="490" y="630" type="line"/>
      <point x="392" y="295" type="line"/>
      <point x="294" y="630" type="line"/>
      <point x="294" y="302" type="line"/>
      <point x="269" y="302" type="line"/>
      <point x="269" y="700" type="line"/>
      <point x="298" y="700" type="line"/>
    </contour>
  </outline>
</glyph>
<glyph name="arrowleft" format="1">
  <advance width="420"/>
  <unicode hex="2190"/>
  <outline>
    <contour>
      <point x="385" y="329" type="line"/>
      <point x="99" y="329" type="line"/>
      <point x="160" y="253" type="line"/>
      <point x="161" y="251"/>
      <point x="160" y="249"/>
      <point x="158" y="248" type="curve"/>
      <point x="157" y="247"/>
      <point x="155" y="247"/>
      <point x="153" y="248" type="curve"/>
      <point x="20" y="347" type="line"/>
      <point x="153" y="447" type="line"/>
      <point x="155" y="448"/>
      <point x="157" y="448"/>
      <point x="158" y="447" type="curve"/>
      <point x="160" y="446"/>
      <point x="161" y="443"/>
      <point x="160" y="441" type="curve"/>
      <point x="99" y="365" type="line"/>
      <point x="385" y="365" type="line"/>
    </contour>
  </outline>
</glyph>
<glyph name="arrowup" format="1">
  <advance width="304"/>
  <unicode hex="2191"/>
  <outline>
    <contour>
      <point x="133" y="0" type="line"/>
      <point x="133" y="633" type="line"/>
      <point x="58" y="573" type="line"/>
      <point x="56" y="572"/>
      <point x="53" y="574"/>
      <point x="53" y="575" type="curve"/>
      <point x="52" y="576"/>
      <point x="52" y="578"/>
      <point x="53" y="580" type="curve"/>
      <point x="152" y="713" type="line"/>
      <point x="251" y="580" type="line"/>
      <point x="252" y="578"/>
      <point x="252" y="576"/>
      <point x="251" y="575" type="curve" smooth="yes"/>
      <point x="250" y="574"/>
      <point x="248" y="572"/>
      <point x="246" y="573" type="curve"/>
      <point x="171" y="633" type="line"/>
      <point x="171" y="0" type="line"/>
    </contour>
  </outline>
</glyph>
<glyph name="arrowright" format="1">
  <advance width="420"/>
  <unicode hex="2192"/>
  <outline>
    <contour>
      <point x="35" y="329" type="line"/>
      <point x="35" y="365" type="line"/>
      <point x="321" y="365" type="line"/>
      <point x="260" y="441" type="line"/>
      <point x="259" y="443"/>
      <point x="260" y="446"/>
      <point x="262" y="447" type="curve"/>
      <point x="263" y="447"/>
      <point x="265" y="448"/>
      <point x="267" y="447" type="curve"/>
      <point x="400" y="347" type="line"/>
      <point x="267" y="248" type="line"/>
      <point x="265" y="247"/>
      <point x="263" y="247"/>
      <point x="262" y="248" type="curve"/>
      <point x="260" y="249"/>
      <point x="259" y="251"/>
      <point x="260" y="253" type="curve"/>
      <point x="321" y="329" type="line"/>
    </contour>
  </outline>
</glyph>
<glyph name="arrowdown" format="1">
  <advance width="304"/>
  <unicode hex="2193"/>
  <outline>
    <contour>
      <point x="152" y="-13" type="line"/>
      <point x="53" y="120" type="line"/>
      <point x="52" y="122"/>
      <point x="52" y="124"/>
      <point x="53" y="125" type="curve"/>
      <point x="53" y="126"/>
      <point x="56" y="128"/>
      <point x="58" y="127" type="curve"/>
      <point x="133" y="67" type="line"/>
      <point x="133" y="702" type="line"/>
      <point x="171" y="702" type="line"/>
      <point x="171" y="67" type="line"/>
      <point x="246" y="127" type="line"/>
      <point x="248" y="128"/>
      <point x="250" y="126"/>
      <point x="251" y="125" type="curve" smooth="yes"/>
      <point x="252" y="124"/>
      <point x="252" y="122"/>
      <point x="251" y="120" type="curve"/>
    </contour>
  </outline>
</glyph>
<glyph name="arrowboth" format="1">
  <advance width="571"/>
  <unicode hex="2194"/>
  <outline>
    <contour>
      <point x="17" y="347" type="line"/>
      <point x="150" y="447" type="line"/>
      <point x="152" y="448"/>
      <point x="153" y="447"/>
      <point x="155" y="447" type="curve"/>
      <point x="156" y="446"/>
      <point x="157" y="443"/>
      <point x="156" y="441" type="curve"/>
      <point x="96" y="365" type="line"/>
      <point x="475" y="365" type="line"/>
      <point x="415" y="441" type="line"/>
      <point x="414" y="443"/>
      <point x="415" y="446"/>
      <point x="416" y="447" type="curve"/>
      <point x="418" y="447"/>
      <point x="420" y="448"/>
      <point x="421" y="447" type="curve"/>
      <point x="555" y="347" type="line"/>
      <point x="421" y="248" type="line"/>
      <point x="420" y="247"/>
      <point x="418" y="247"/>
      <point x="416" y="248" type="curve"/>
      <point x="415" y="249"/>
      <point x="414" y="251"/>
      <point x="415" y="253" type="curve"/>
      <point x="475" y="329" type="line"/>
      <point x="96" y="329" type="line"/>
      <point x="156" y="253" type="line"/>
      <point x="157" y="251"/>
      <point x="156" y="249"/>
      <point x="155" y="248" type="curve"/>
      <point x="153" y="247"/>
      <point x="152" y="247"/>
      <point x="150" y="248" type="curve"/>
    </contour>
  </outline>
</glyph>
<glyph name="arrowupdn" format="1">
  <advance width="304"/>
  <unicode hex="2195"/>
  <outline>
    <contour>
      <point x="152" y="-13" type="line"/>
      <point x="53" y="120" type="line"/>
      <point x="52" y="122"/>
      <point x="52" y="124"/>
      <point x="53" y="125" type="curve"/>
      <point x="53" y="126"/>
      <point x="56" y="128"/>
      <point x="58" y="127" type="curve"/>
      <point x="133" y="67" type="line"/>
      <point x="133" y="633" type="line"/>
      <point x="58" y="573" type="line"/>
      <point x="56" y="572"/>
      <point x="53" y="574"/>
      <point x="53" y="575" type="curve"/>
      <point x="52" y="576"/>
      <point x="52" y="578"/>
      <point x="53" y="580" type="curve"/>
      <point x="152" y="713" type="line"/>
      <point x="251" y="580" type="line"/>
      <point x="252" y="578"/>
      <point x="252" y="576"/>
      <point x="251" y="575" type="curve" smooth="yes"/>
      <point x="250" y="574"/>
      <point x="248" y="572"/>
      <point x="246" y="573" type="curve"/>
      <point x="171" y="633" type="line"/>
      <point x="171" y="67" type="line"/>
      <point x="246" y="127" type="line"/>
      <point x="248" y="128"/>
      <point x="250" y="126"/>
      <point x="251" y="125" type="curve" smooth="yes"/>
      <point x="252" y="124"/>
      <point x="252" y="122"/>
      <point x="251" y="120" type="curve"/>
    </contour>
  </outline>
</glyph>
<glyph name="radical" format="1">
  <advance width="409"/>
  <unicode hex="221A"/>
  <outline>
    <contour>
      <point x="156" y="-1" type="line"/>
      <point x="26" y="340" type="line"/>
      <point x="70" y="340" type="line"/>
      <point x="70" y="340"/>
      <point x="168" y="66"/>
      <point x="173" y="44" type="curve"/>
      <point x="177" y="67"/>
      <point x="345" y="700"/>
      <point x="345" y="700" type="curve"/>
      <point x="385" y="700" type="line"/>
      <point x="194" y="-1" type="line"/>
    </contour>
  </outline>
</glyph>
<glyph name="apple" format="1">
  <advance width="562"/>
  <unicode hex="F8FF"/>
  <outline>
    <contour>
      <point x="281" y="-13" type="line"/>
      <point x="182" y="118" type="line"/>
      <point x="180" y="120"/>
      <point x="180" y="121"/>
      <point x="181" y="122" type="curve"/>
      <point x="181" y="124"/>
      <point x="184" y="125"/>
      <point x="187" y="124" type="curve"/>
      <point x="264" y="63" type="line"/>
      <point x="264" y="329" type="line"/>
      <point x="93" y="329" type="line"/>
      <point x="153" y="252" type="line"/>
      <point x="154" y="250"/>
      <point x="153" y="247"/>
      <point x="152" y="246" type="curve"/>
      <point x="151" y="246"/>
      <point x="150" y="246"/>
      <point x="147" y="247" type="curve"/>
      <point x="17" y="347" type="line"/>
      <point x="147" y="447" type="line" smooth="yes"/>
      <point x="150" y="449"/>
      <point x="151" y="449"/>
      <point x="152" y="448" type="curve" smooth="yes"/>
      <point x="153" y="447"/>
      <point x="154" y="444"/>
      <point x="153" y="442" type="curve"/>
      <point x="93" y="365" type="line"/>
      <point x="264" y="365" type="line"/>
      <point x="264" y="637" type="line"/>
      <point x="187" y="576" type="line"/>
      <point x="184" y="575"/>
      <point x="181" y="576"/>
      <point x="181" y="578" type="curve"/>
      <point x="180" y="579"/>
      <point x="180" y="580"/>
      <point x="182" y="582" type="curve"/>
      <point x="281" y="713" type="line"/>
      <point x="381" y="582" type="line"/>
      <point x="382" y="580"/>
      <point x="382" y="579"/>
      <point x="381" y="578" type="curve"/>
      <point x="381" y="576"/>
      <point x="378" y="575"/>
      <point x="376" y="576" type="curve"/>
      <point x="299" y="637" type="line"/>
      <point x="299" y="365" type="line"/>
      <point x="469" y="365" type="line"/>
      <point x="409" y="442" type="line"/>
      <point x="407" y="444"/>
      <point x="408" y="447"/>
      <point x="410" y="448" type="curve"/>
      <point x="411" y="449"/>
      <point x="413" y="449"/>
      <point x="415" y="447" type="curve"/>
      <point x="546" y="347" type="line"/>
      <point x="415" y="247" type="line"/>
      <point x="413" y="246"/>
      <point x="411" y="246"/>
      <point x="410" y="246" type="curve"/>
      <point x="408" y="247"/>
      <point x="407" y="250"/>
      <point x="409" y="252" type="curve"/>
      <point x="469" y="329" type="line"/>
      <point x="299" y="329" type="line"/>
      <point x="299" y="63" type="line"/>
      <point x="376" y="124" type="line"/>
      <point x="378" y="125"/>
      <point x="381" y="124"/>
      <point x="381" y="122" type="curve"/>
      <point x="382" y="121"/>
      <point x="382" y="120"/>
      <point x="381" y="118" type="curve"/>
    </contour>
  </outline>
</glyph>
<glyph name="fi" format="1">
  <advance width="429"/>
  <unicode hex="FB01"/>
  <outline>
    <contour>
      <point x="339" y="710" type="curve" smooth="yes"/>
      <point x="359" y="710"/>
      <point x="375" y="693"/>
      <point x="375" y="672" type="curve" smooth="yes"/>
      <point x="375" y="651"/>
      <point x="359" y="635"/>
      <point x="339" y="635" type="curve" smooth="yes"/>
      <point x="319" y="635"/>
      <point x="303" y="651"/>
      <point x="303" y="672" type="curve" smooth="yes"/>
      <point x="303" y="693"/>
      <point x="319" y="710"/>
    </contour>
    <contour>
      <point x="89" y="0" type="line"/>
      <point x="89" y="490" type="line"/>
      <point x="29" y="490" type="line"/>
      <point x="29" y="525" type="line"/>
      <point x="89" y="525" type="line"/>
      <point x="89" y="617" type="line" smooth="yes"/>
      <point x="89" y="703"/>
      <point x="131" y="726"/>
      <point x="186" y="726" type="curve" smooth="yes"/>
      <point x="203" y="726"/>
      <point x="219" y="723"/>
      <point x="233" y="718" type="curve"/>
      <point x="233" y="679" type="line"/>
      <point x="219" y="684"/>
      <point x="204" y="688"/>
      <point x="187" y="688" type="curve" smooth="yes"/>
      <point x="153" y="688"/>
      <point x="129" y="672"/>
      <point x="129" y="620" type="curve" smooth="yes"/>
      <point x="129" y="525" type="line"/>
      <point x="220" y="525" type="line"/>
      <point x="220" y="490" type="line"/>
      <point x="129" y="490" type="line"/>
      <point x="129" y="0" type="line"/>
    </contour>
    <contour>
      <point x="318" y="0" type="line"/>
      <point x="318" y="525" type="line"/>
      <point x="358" y="525" type="line"/>
      <point x="358" y="0" type="line"/>
    </contour>
  </outline>
</glyph>
<glyph name="fl" format="1">
  <advance width="429"/>
  <unicode hex="FB02"/>
  <outline>
    <contour>
      <point x="318" y="0" type="line"/>
      <point x="318" y="705" type="line"/>
      <point x="358" y="729" type="line"/>
      <point x="358" y="0" type="line"/>
    </contour>
    <contour>
      <point x="89" y="0" type="line"/>
      <point x="89" y="490" type="line"/>
      <point x="29" y="490" type="line"/>
      <point x="29" y="525" type="line"/>
      <point x="89" y="525" type="line"/>
      <point x="89" y="617" type="line" smooth="yes"/>
      <point x="89" y="703"/>
      <point x="131" y="726"/>
      <point x="186" y="726" type="curve" smooth="yes"/>
      <point x="203" y="726"/>
      <point x="219" y="723"/>
      <point x="233" y="718" type="curve"/>
      <point x="233" y="679" type="line"/>
      <point x="219" y="684"/>
      <point x="204" y="688"/>
      <point x="187" y="688" type="curve" smooth="yes"/>
      <point x="153" y="688"/>
      <point x="129" y="672"/>
      <point x="129" y="620" type="curve" smooth="yes"/>
      <point x="129" y="525" type="line"/>
      <point x="220" y="525" type="line"/>
      <point x="220" y="490" type="line"/>
      <point x="129" y="490" type="line"/>
      <point x="129" y="0" type="line"/>
    </contour>
  </outline>
</glyph>
<glyph name="a.salt" format="1">
  <advance width="417"/>
  <outline>
    <contour>
      <point x="348" y="525" type="line"/>
      <point x="348" y="0" type="line"/>
      <point x="308" y="0" type="line"/>
      <point x="308" y="50" type="line"/>
      <point x="288" y="25"/>
      <point x="244" y="-10"/>
      <point x="187" y="-10" type="curve" smooth="yes"/>
      <point x="97" y="-10"/>
      <point x="43" y="72"/>
      <point x="43" y="260" type="curve" smooth="yes"/>
      <point x="43" y="450"/>
      <point x="100" y="535"/>
      <point x="191" y="535" type="curve" smooth="yes"/>
      <point x="248" y="535"/>
      <point x="288" y="501"/>
      <point x="308" y="477" type="curve"/>
      <point x="308" y="525" type="line"/>
    </contour>
    <contour>
      <point x="193" y="498" type="curve" smooth="yes"/>
      <point x="122" y="498"/>
      <point x="83" y="421"/>
      <point x="83" y="260" type="curve" smooth="yes"/>
      <point x="83" y="94"/>
      <point x="125" y="27"/>
      <point x="196" y="27" type="curve" smooth="yes"/>
      <point x="243" y="27"/>
      <point x="283" y="58"/>
      <point x="308" y="93" type="curve"/>
      <point x="308" y="431" type="line"/>
      <point x="283" y="468"/>
      <point x="243" y="498"/>
    </contour>
  </outline>
</glyph>
<glyph name="bullet" format="1">
  <advance width="266"/>
  <outline>
    <contour>
      <point x="133" y="303" type="curve" smooth="yes"/>
      <point x="98" y="303"/>
      <point x="70" y="331"/>
      <point x="70" y="366" type="curve" smooth="yes"/>
      <point x="70" y="401"/>
      <point x="98" y="430"/>
      <point x="133" y="430" type="curve" smooth="yes"/>
      <point x="168" y="430"/>
      <point x="196" y="401"/>
      <point x="196" y="366" type="curve" smooth="yes"/>
      <point x="196" y="331"/>
      <point x="168" y="303"/>
    </contour>
  </outline>
</glyph>
<glyph name="macron" format="1">
  <advance width="390"/>
  <outline>
    <contour>
      <point x="75" y="628" type="line"/>
      <point x="75" y="663" type="line"/>
      <point x="314" y="663" type="line"/>
      <point x="314" y="628" type="line"/>
    </contour>
  </outline>
</glyph>
<glyph name="registered" format="1">
  <advance width="605"/>
  <outline>
    <contour>
      <point x="302" y="-10" type="curve" smooth="yes"/>
      <point x="145" y="-10"/>
      <point x="45" y="141"/>
      <point x="45" y="350" type="curve" smooth="yes"/>
      <point x="45" y="560"/>
      <point x="145" y="711"/>
      <point x="302" y="711" type="curve" smooth="yes"/>
      <point x="460" y="711"/>
      <point x="560" y="560"/>
      <point x="560" y="350" type="curve" smooth="yes"/>
      <point x="560" y="141"/>
      <point x="460" y="-10"/>
    </contour>
    <contour>
      <point x="302" y="17" type="curve" smooth="yes"/>
      <point x="445" y="17"/>
      <point x="531" y="157"/>
      <point x="531" y="350" type="curve" smooth="yes"/>
      <point x="531" y="543"/>
      <point x="445" y="684"/>
      <point x="302" y="684" type="curve" smooth="yes"/>
      <point x="159" y="684"/>
      <point x="73" y="543"/>
      <point x="73" y="350" type="curve" smooth="yes"/>
      <point x="73" y="157"/>
      <point x="159" y="17"/>
    </contour>
    <contour>
      <point x="218" y="159" type="line"/>
      <point x="218" y="557" type="line"/>
      <point x="298" y="557" type="line" smooth="yes"/>
      <point x="360" y="557"/>
      <point x="405" y="529"/>
      <point x="405" y="453" type="curve" smooth="yes"/>
      <point x="405" y="397"/>
      <point x="380" y="365"/>
      <point x="339" y="352" type="curve"/>
      <point x="407" y="159" type="line"/>
      <point x="375" y="159" type="line"/>
      <point x="308" y="345" type="line"/>
      <point x="303" y="345"/>
      <point x="294" y="344"/>
      <point x="284" y="344" type="curve" smooth="yes"/>
      <point x="278" y="344"/>
      <point x="248" y="344"/>
      <point x="248" y="344" type="curve"/>
      <point x="248" y="159" type="line"/>
    </contour>
    <contour>
      <point x="248" y="371" type="line"/>
      <point x="295" y="371" type="line" smooth="yes"/>
      <point x="347" y="371"/>
      <point x="375" y="396"/>
      <point x="375" y="453" type="curve" smooth="yes"/>
      <point x="375" y="509"/>
      <point x="346" y="530"/>
      <point x="297" y="530" type="curve" smooth="yes"/>
      <point x="248" y="530" type="line"/>
    </contour>
  </outline>
</glyph>
